<svg class="social-icon" id="fb-icon"
  viewbox="0 0 10240 10240"
  version="1.1"
  xmlns="http://www.w3.org/2000/svg">
  <path d="M4145,4745l0,1510l1330,10l3,1988l2,1987l-2512,-1c-2369,-1 -2517,-2 -2583,-18c-101,-26 -151,-55 -231,-135c-81,-81 -109,-130 -135,-236c-18,-72 -19,-241 -19,-4730c0,-4489 1,-4658 19,-4730c26,-106 54,-155 135,-236c81,-81 130,-109 236,-135c72,-18 241,-19 4730,-19c4489,0 4658,1 4730,19c106,26 155,54 236,135c81,81 109,130 135,236c18,72 19,241 19,4730c0,4489 -1,4658 -19,4730c-26,106 -54,155 -135,236c-81,81 -130,109 -236,135c-70.998,18 -146.996,19 -1433,19l-1357,0l2,-1987l3,-1988l1310,-10l7,-25c6,-20 180,-1355 191,-1460l2,-25l-1510,-10l-3,-593c-2,-555 -1,-599 17,-689c50,-244 173,-375 417,-445c76,-21 99,-22 609,-28l530,-5l0,-1349l-40,-7c-255,-43 -1211,-65 -1450,-34c-865,113 -1437,633 -1605,1459c-48,234 -52,307 -59,1016l-6,675l-1330,10Z"/>
</svg>