<svg id="theBestWords" viewBox="0 89 1292 320" version="1.1" xml:space="preserve" style="fill-rule:evenodd;clip-rule:evenodd;stroke-linejoin:round;stroke-miterlimit:1.41421;">
  <rect id="Artboard1" x="0" y="0" width="1291.98" height="511.056" style="fill:none;"/>

<g id="hair">
  <path d="M745.24,332.022l-2.886,-1.158l0.386,-24.328c0.247,-15.496 0.886,-24.825 1.76,-25.698c2.571,-2.565 7.513,1.113 10.663,7.937c4.109,8.904 10.29,15.374 18.78,19.66c7.988,4.032 9.809,6.41 9.809,12.808c0,7.153 -3.316,9.907 -13.259,11.011c-11.512,1.278 -21.722,1.184 -25.253,-0.232l0,0Zm-226.397,-4.477c-5.626,-7.152 -2.047,-15.869 8.415,-20.495c7.951,-3.516 12.103,-7.771 17.393,-17.828c4.885,-9.285 7.917,-11.942 10.321,-9.045c1.595,1.922 2.232,46.86 0.699,49.34c-0.507,0.822 -7.135,1.322 -17.527,1.322c-16.563,0 -16.733,-0.029 -19.301,-3.294l0,0Zm84.079,-79.735c-13.435,-3.258 -27.747,-12.994 -39.715,-27.014c-14.383,-16.85 -20.201,-41.531 -15.019,-63.707c5.353,-22.907 22.434,-44.64 43.08,-54.813c21.076,-10.384 48.286,-9.89 70.412,1.279c5.092,2.57 12.271,8.452 22.788,18.671c17.392,16.898 22.868,20.07 38.659,22.391c17.747,2.608 25.475,7.896 28.936,19.799c2.375,8.172 1.528,14.97 -2.783,22.327c-4.566,7.791 -11.388,11.229 -26.873,13.545c-7.143,1.068 -15.248,2.942 -18.009,4.166c-3.014,1.334 -11.516,8.691 -21.271,18.404c-17.521,17.448 -23.527,21.337 -38.343,24.83c-9.58,2.258 -32.776,2.326 -41.862,0.122l0,0Zm11.455,-25.692c0,-1.196 -2.2,-2.336 -6.25,-3.238c-8.782,-1.957 -12.992,-4.421 -19.43,-11.37c-5.763,-6.22 -8.874,-12.312 -10.747,-21.046c-0.673,-3.135 -1.772,-5 -2.948,-5c-1.436,0 -1.825,1.409 -1.664,6.028c0.403,11.586 10.587,27.037 21.209,32.178c10.199,4.938 19.83,6.127 19.83,2.448Z"/>
</g>

<g id="words">
  <path d="M307.31,294.589c-3.768,-3.769 -6.058,-4.747 -6.058,-2.59c0,4.482 -11.984,7.034 -16.562,3.527c-1.882,-1.442 -1.86,-2.527 0.29,-14.062c2.497,-13.394 10.562,-50.781 12.582,-58.322c1.309,-4.887 5.465,-7.303 12.565,-7.303c5.168,0 6.029,2.74 4.07,12.969c-1.89,9.876 -1.583,12.044 1.704,12.003c5.7,-0.071 12.839,-10.264 12.847,-18.34c0.012,-13.877 -17.274,-17.347 -33.897,-6.805c-7.036,4.462 -11.383,12.67 -12.122,22.889c-0.596,8.241 -2.704,9.967 -7.665,6.276c-2.545,-1.893 -3.253,-3.603 -3.518,-8.494c-0.882,-16.26 17.674,-31.018 41.064,-32.661c11.088,-0.779 16.985,0.783 23.048,6.107c7.946,6.977 8.58,15.858 1.887,26.411l-3.676,5.798l4.241,5.076c4.441,5.315 4.918,6.399 6.23,14.163c1.097,6.493 3.048,5.357 6.857,-3.996c4.179,-10.26 10.224,-17.257 18.062,-20.907c8.617,-4.012 15.687,-3.928 20.647,0.247c3.343,2.812 3.846,4.047 3.846,9.437c0,10.482 -4.877,16.693 -18.415,23.451c-8.812,4.399 -10.787,7.966 -7.332,13.24c9.102,13.891 31.517,-6.375 43.311,-39.158c3.135,-8.715 5.532,-10.926 13.159,-12.144c8.788,-1.402 9.59,0.624 11.265,28.462c0.837,13.922 2.23,17.927 5.761,16.572c4.107,-1.576 9.702,-20.996 9.733,-33.784c0.01,-4.159 0.644,-8.188 1.409,-8.953c0.764,-0.764 2.364,-4.392 3.555,-8.062c2.48,-7.64 5.392,-9.751 13.492,-9.779l5.312,-0.018l0,8.339c0,5.855 0.59,8.99 1.981,10.527c1.829,2.021 1.71,2.357 -1.563,4.408c-1.948,1.22 -3.663,2.275 -3.811,2.344c-0.6,0.282 -7.857,35.935 -7.857,38.607c0,1.588 1.125,3.905 2.5,5.15c1.375,1.244 2.5,2.921 2.5,3.725c0,2.79 -6.027,7.108 -10.814,7.746c-5.928,0.791 -10.99,-2.681 -12.115,-8.308c-1.064,-5.318 -3.921,-4.919 -15.369,2.146c-8.967,5.534 -10.182,5.934 -18.014,5.937c-7.541,0.002 -8.996,-0.425 -14.257,-4.201l-5.859,-4.204l-7.723,3.917c-14.937,7.574 -28.98,6.203 -34.227,-3.341c-1.411,-2.567 -2.942,-6.777 -3.4,-9.355c-0.459,-2.578 -1.379,-4.687 -2.044,-4.687c-0.665,0 -2.538,2.953 -4.162,6.562c-3.241,7.204 -9.441,13.799 -14.91,15.861c-1.935,0.73 -6.056,1.327 -9.158,1.327c-4.6,0 -6.331,-0.692 -9.39,-3.75Zm552.985,1.457c-1.163,-0.739 -1.915,-10.252 -2.836,-35.918c-1.525,-42.447 -1.854,-45.539 -4.851,-45.539c-6.023,0 -12.955,11.554 -14.435,24.062c-0.745,6.298 -1.187,7.185 -3.573,7.168c-3.789,-0.026 -5.474,-1.334 -7.047,-5.473c-2.712,-7.132 0.683,-16.491 8.562,-23.61c8.721,-7.879 24.157,-13.937 33.537,-13.163l4.725,0.391l0.782,22.5c0.43,12.375 0.852,26.859 0.937,32.187c0.119,7.373 0.572,9.688 1.898,9.688c2.034,0 1.36,1.611 10.983,-26.25c9.368,-27.119 13.107,-36.462 15.1,-37.728c2.31,-1.467 11.902,-1.226 12.86,0.323c0.457,0.741 1.371,14.662 2.03,30.938c0.66,16.275 1.673,30.074 2.252,30.663c1.578,1.608 3.129,-1.988 13.288,-30.815c5.122,-14.532 10.154,-27.707 11.183,-29.277c2.315,-3.534 6.812,-3.846 6.812,-0.474c0,4.591 -30.468,85.871 -33.43,89.182c-2.087,2.333 -12.003,3.064 -15.08,1.112c-1.155,-0.732 -1.998,-7.244 -2.871,-22.168c-0.68,-11.622 -1.531,-23.04 -1.892,-25.372c-0.578,-3.732 -0.877,-4.02 -2.496,-2.401c-1.011,1.012 -5.744,12.201 -10.516,24.865c-4.773,12.665 -9.637,23.73 -10.81,24.589c-2.368,1.735 -12.641,2.088 -15.112,0.52l0,0Zm-750.16,-0.099c-2.183,-1.382 -1.873,-3.455 6.077,-40.733c3.372,-15.813 6.308,-30.924 6.523,-33.58c0.575,-7.086 -2.033,-8.272 -9.764,-4.441c-7.346,3.641 -11.049,9.99 -12.346,21.169c-0.478,4.114 -1.334,7.768 -1.902,8.12c-2.585,1.597 -7.529,-2.467 -8.816,-7.247c-4.191,-15.567 9.746,-31.466 30.516,-34.811c7.803,-1.257 55.619,0.822 57.23,2.487c0.426,0.442 0.013,4.178 -0.919,8.303c-0.932,4.125 -2.063,10.452 -2.513,14.061l-0.818,6.561l9.433,-0.797c8.994,-0.76 9.584,-0.647 12.675,2.444c2.815,2.816 3.236,4.277 3.197,11.111c-0.024,4.328 -0.848,11.526 -1.831,15.995c-2.133,9.7 -2.378,18.291 -0.554,19.418c2.231,1.379 7.279,-0.551 8.78,-3.356c0.782,-1.462 2.76,-7.657 4.395,-13.767c3.531,-13.194 5.375,-17.008 11.513,-23.815c5.727,-6.353 12.781,-9.667 20.65,-9.703c5.022,-0.023 6.646,0.585 9.688,3.626c9.23,9.231 0.929,25.662 -16.684,33.021c-5.737,2.397 -8.185,6.962 -6.14,11.451c1.573,3.452 6.174,4.113 13.673,1.962c3.713,-1.065 4.054,-0.927 4.054,1.641c0,4.032 -6.342,9.527 -12.625,10.939c-7.161,1.609 -14.445,0.318 -20.187,-3.577l-4.688,-3.18l-5.205,3.607c-4.307,2.985 -6.484,3.608 -12.608,3.608c-6.562,0 -7.746,-0.399 -10.42,-3.508c-3.711,-4.314 -3.952,-11.42 -0.982,-29c2.142,-12.675 1.366,-18.117 -2.584,-18.117c-5.266,0 -8.395,7.995 -13.206,33.736c-1.477,7.899 -3.273,15.07 -3.993,15.937c-1.494,1.801 -11.988,2.101 -14.645,0.419c-1.934,-1.225 -1.479,-4.077 8.057,-50.472c2.515,-12.24 4.235,-23.606 3.82,-25.258c-0.874,-3.484 -7.667,-5.423 -11.608,-3.313c-2.524,1.35 -3.316,4.326 -14.31,53.777c-4.848,21.801 -5.671,24.311 -8.305,25.312c-3.724,1.416 -10.369,1.4 -12.628,-0.03l0,0Zm844.136,-0.559c-2.12,-0.965 -5.13,-3.368 -6.687,-5.34c-2.591,-3.279 -2.79,-4.596 -2.331,-15.459c0.41,-9.706 1.154,-13.314 4.075,-19.751c6.266,-13.814 19.342,-22.854 30.449,-21.052c6.576,1.067 10.193,4.169 13.449,11.532c4.512,10.202 9.182,8.908 13.905,-3.854l2.313,-6.25l6.785,-0.387c3.732,-0.213 8.069,0.3 9.638,1.14c2.203,1.179 3.958,1.196 7.702,0.074c7.225,-2.164 9.73,-1.798 12.593,1.841c3.27,4.158 3.304,8.493 0.091,11.707c-3.349,3.348 -6.992,3.15 -11.478,-0.625c-7.789,-6.554 -9.603,-3.784 -15.995,24.41c-2.694,11.887 -5.631,22.077 -6.526,22.645c-2.236,1.418 -10.674,1.333 -13.419,-0.136c-2.481,-1.328 -2.53,-0.526 1.257,-20.935c2.194,-11.828 2.199,-16.609 0.016,-16.609c-2.649,0 -5.553,4.133 -8.359,11.893c-4.683,12.956 -8.569,18.854 -14.846,22.533c-6.751,3.956 -17.074,5.153 -22.631,2.623l-0.001,0Zm100.008,-0.006c-6.123,-2.773 -8.439,-9.16 -7.723,-21.292c0.743,-12.592 4.356,-22.343 11.131,-30.04c6.927,-7.869 10.473,-9.461 21.067,-9.461c8.838,0 8.883,-0.018 10.547,-4.063c0.92,-2.234 2.075,-6.513 2.569,-9.507c0.493,-2.995 1.922,-6.47 3.174,-7.723c2.756,-2.755 13.303,-4.613 15.233,-2.683c0.949,0.949 -0.588,10.884 -5.299,34.255c-6.834,33.903 -7.216,39.721 -2.605,39.721c2.869,0 3.753,-1.057 11.151,-13.313c5.832,-9.663 10.271,-19.062 14.53,-30.764c2.504,-6.88 5.018,-8.595 12.985,-8.859c8.337,-0.275 9.058,1.843 9.85,28.983c0.633,21.678 0.591,22.155 -2.309,26.344c-4.429,6.399 -11.348,9.492 -21.078,9.42c-6.051,-0.045 -9.241,-0.747 -12.5,-2.75l-4.376,-2.69l-5.624,2.556c-8.298,3.772 -16.257,3.591 -21.095,-0.481l-3.894,-3.276l-5.434,3.037c-6.865,3.837 -15.197,4.899 -20.3,2.586l0,0Zm-642.632,-9.748c4.73,-2.519 5.774,-5.105 5.816,-14.402c0.041,-9.336 -1.432,-15.393 -3.743,-15.393c-1.948,0 -4.998,8.012 -5.878,15.438c-0.564,4.767 -1.548,7.027 -3.845,8.834l-3.086,2.428l2.809,2.275c3.295,2.668 4.269,2.769 7.927,0.82l0,0Zm717.973,-1.564c3.284,-2.826 3.499,-3.61 3.383,-12.289c-0.068,-5.099 -0.511,-10.812 -0.983,-12.695c-1.788,-7.123 -6.604,-0.385 -8.216,11.494c-0.692,5.098 -1.681,7.496 -3.627,8.787c-3.243,2.154 -3.435,4.655 -0.487,6.371c3.476,2.025 6.164,1.573 9.93,-1.668Zm-808.449,-0.65c6.692,-6.692 6.714,-29.032 0.032,-32.608c-1.257,-0.673 -4.025,-1.223 -6.149,-1.223c-3.06,0 -4.139,0.715 -5.189,3.437c-2.121,5.5 -6.264,25.509 -5.858,28.292c0.67,4.597 13.142,6.124 17.164,2.102l0,0Zm656.651,-7.671c3.019,-5.946 3.483,-8.409 3.75,-19.91c0.3,-12.9 0.255,-13.133 -2.61,-13.538c-6.962,-0.986 -13.966,13.148 -14.935,30.136c-0.721,12.642 0.176,14.243 6.524,11.657c2.684,-1.093 4.855,-3.585 7.271,-8.345l0,0Zm99.256,4.074c3.286,-4.893 8.295,-25.395 7.709,-31.552c-0.348,-3.662 -0.931,-4.367 -3.889,-4.707c-2.598,-0.298 -4.416,0.603 -7.174,3.555c-6.637,7.105 -11.08,28.228 -7.388,35.127c2.034,3.799 7.371,2.595 10.742,-2.423l0,0Zm-700.528,-18.95c6.051,-4.76 9.497,-16.733 5.281,-18.35c-1.057,-0.406 -3.087,0.315 -4.51,1.601c-3.245,2.933 -8.569,13.291 -8.569,16.673c0,3.3 3.654,3.335 7.798,0.076l0,0Zm-139.557,0.4c4.051,-2.654 8.268,-10.913 7.771,-15.217c-0.304,-2.625 -1.055,-3.342 -3.499,-3.342c-2.438,0 -3.995,1.477 -7.187,6.819c-6.532,10.93 -5.036,16.95 2.915,11.74Z" />
</g>

<g id="face">
  <path id="path4800" d="M633.229,398.191c-2.063,-1.084 -5.438,-3.53 -7.5,-5.435c-4.427,-4.09 -10.817,-7.495 -14.067,-7.495c-5.422,0 -23.09,-10.082 -30.13,-17.194c-8.495,-8.58 -15.971,-22.699 -17.703,-33.431c-1.706,-10.567 -0.986,-90.633 0.73,-90.633c0.728,0 2.768,-2.078 5.306,-0.046c10.553,8.453 37.249,17.554 51.489,17.554c10.267,0 26.905,-4.495 39.694,-10.725c4.45,-2.168 8.072,-4.526 13.576,-9.265c3.649,-3.142 8.125,-7.331 14.219,-13.206c0,0 7.817,-7.536 13.351,-12.871c3.449,-3.325 8.053,-5.183 12.844,-5.183c0,0 0,0 0,0c6.092,0 7.942,0.509 10.039,2.759c5.294,5.683 5.652,10.024 5.652,68.624c0,0 0,35.531 0,49.866c0,3.875 -0.897,7.697 -2.622,11.166c-1.819,3.661 -3.917,7.883 -3.917,7.883c-5.12,10.304 -8.049,14.539 -13.502,19.522c-7.846,7.171 -19.412,13.18 -29.454,15.302c-7.81,1.65 -10.125,2.731 -16.13,7.532c-8.751,6.996 -23.847,9.495 -31.875,5.276l0,0Zm18.679,-40.708c1.253,-1.789 1.946,-5.537 1.946,-10.529c0,-6.515 -0.516,-8.364 -3.236,-11.597c-3.739,-4.443 -7.872,-4.956 -11.11,-1.378c-1.753,1.937 -2.233,4.621 -2.233,12.486c0,11.74 1.179,13.796 7.911,13.796c3.519,0 5.289,-0.731 6.722,-2.778l0,0Zm-26.63,-57.143c2.359,-1.936 2.687,-2.876 1.636,-4.688c-1.466,-2.526 -13.718,-9.038 -17.123,-9.1c-3.397,-0.063 -3.014,9.543 0.531,13.316c3.456,3.679 10.767,3.909 14.956,0.472Zm56.555,-2.582c2.487,-2.752 4.521,-5.519 4.521,-6.148c0,-3.171 -1.826,-5.097 -4.821,-5.086c-4.032,0.015 -15.153,5.053 -17.55,7.95c-2.713,3.28 2.539,8.287 8.693,8.287c3.824,0 5.43,-0.877 9.157,-5.003Z" />
</g>
</g>
</svg>