<svg id="trumpHead" viewBox="0 0 278 318" version="1.1" xml:space="preserve" style="fill-rule:evenodd;clip-rule:evenodd;stroke-linejoin:round;stroke-miterlimit:1.41421;">

<g clip-path="url(#_clip1)">

  <g id="hair">
        <path d="M235.162,243.041l-2.886,-1.158l0.386,-24.328c0.247,-15.496 0.886,-24.825 1.76,-25.698c2.571,-2.565 7.513,1.113 10.663,7.937c4.109,8.904 10.29,15.374 18.78,19.66c7.988,4.032 9.809,6.41 9.809,12.808c0,7.153 -3.316,9.907 -13.259,11.011c-11.512,1.278 -21.722,1.184 -25.253,-0.232l0,0Zm-226.397,-4.477c-5.626,-7.152 -2.047,-15.869 8.415,-20.495c7.951,-3.516 12.103,-7.771 17.393,-17.828c4.885,-9.285 7.917,-11.942 10.321,-9.045c1.595,1.922 2.232,46.86 0.699,49.34c-0.507,0.822 -7.135,1.322 -17.527,1.322c-16.563,0 -16.733,-0.029 -19.301,-3.294l0,0Zm84.079,-79.735c-13.435,-3.258 -27.747,-12.994 -39.715,-27.014c-14.383,-16.85 -20.201,-41.531 -15.019,-63.707c5.353,-22.907 22.434,-44.64 43.08,-54.813c21.076,-10.384 48.286,-9.89 70.412,1.279c5.092,2.57 12.271,8.452 22.788,18.671c17.392,16.898 22.868,20.07 38.659,22.391c17.747,2.608 25.475,7.896 28.936,19.799c2.375,8.172 1.528,14.97 -2.783,22.327c-4.566,7.791 -11.388,11.229 -26.873,13.545c-7.143,1.068 -15.248,2.942 -18.009,4.166c-3.014,1.334 -11.516,8.691 -21.271,18.404c-17.521,17.448 -23.527,21.337 -38.343,24.83c-9.58,2.258 -32.776,2.326 -41.862,0.122l0,0Zm11.455,-25.692c0,-1.196 -2.2,-2.336 -6.25,-3.238c-8.782,-1.957 -12.992,-4.421 -19.43,-11.37c-5.763,-6.22 -8.874,-12.312 -10.747,-21.046c-0.673,-3.135 -1.772,-5 -2.948,-5c-1.436,0 -1.825,1.409 -1.664,6.028c0.403,11.586 10.587,27.037 21.209,32.178c10.199,4.938 19.83,6.127 19.83,2.448l0,0Z"/>
    </g>

    <g id="face">
        <path id="path4800" d="M123.151,309.21c-2.063,-1.084 -5.438,-3.53 -7.5,-5.435c-4.427,-4.09 -10.817,-7.495 -14.067,-7.495c-5.422,0 -23.09,-10.082 -30.13,-17.194c-8.495,-8.58 -15.971,-22.699 -17.703,-33.431c-1.706,-10.567 -0.986,-90.633 0.73,-90.633c0.728,0 2.768,-2.078 5.306,-0.046c10.553,8.453 37.249,17.554 51.489,17.554c10.267,0 26.905,-4.495 39.694,-10.725c4.45,-2.168 8.072,-4.526 13.576,-9.265c3.649,-3.142 8.125,-7.331 14.219,-13.206c0,0 7.817,-7.536 13.351,-12.871c3.449,-3.325 8.053,-5.183 12.844,-5.183c6.092,0 7.942,0.509 10.039,2.759c5.294,5.683 5.652,10.024 5.652,68.624c0,0 0,35.531 0,49.866c0,3.875 -0.897,7.697 -2.622,11.166c-1.819,3.661 -3.917,7.883 -3.917,7.883c-5.12,10.304 -8.049,14.539 -13.502,19.522c-7.846,7.171 -19.412,13.18 -29.454,15.302c-7.81,1.65 -10.125,2.731 -16.13,7.532c-8.751,6.996 -23.847,9.495 -31.875,5.276l0,0Zm18.679,-40.708c1.253,-1.789 1.946,-5.537 1.946,-10.529c0,-6.515 -0.516,-8.364 -3.236,-11.597c-3.739,-4.443 -7.872,-4.956 -11.11,-1.378c-1.753,1.937 -2.233,4.621 -2.233,12.486c0,11.74 1.179,13.796 7.911,13.796c3.519,0 5.289,-0.731 6.722,-2.778Zm-26.63,-57.143c2.359,-1.936 2.687,-2.876 1.636,-4.688c-1.466,-2.526 -13.718,-9.038 -17.123,-9.1c-3.397,-0.063 -3.014,9.543 0.531,13.316c3.456,3.679 10.767,3.909 14.956,0.472l0,0Zm56.555,-2.582c2.487,-2.752 4.521,-5.519 4.521,-6.148c0,-3.171 -1.826,-5.097 -4.821,-5.086c-4.032,0.015 -15.153,5.053 -17.55,7.95c-2.713,3.28 2.539,8.287 8.693,8.287c3.824,0 5.43,-0.877 9.157,-5.003l0,0Z" style="fill-rule:nonzero;"/>
    </g>

</g>
</svg>