<?xml version="1.0" encoding="UTF-8" standalone="no"?>
<svg
   xmlns:dc="http://purl.org/dc/elements/1.1/"
   xmlns:cc="http://creativecommons.org/ns#"
   xmlns:rdf="http://www.w3.org/1999/02/22-rdf-syntax-ns#"
   xmlns:svg="http://www.w3.org/2000/svg"
   xmlns="http://www.w3.org/2000/svg"
   xmlns:xlink="http://www.w3.org/1999/xlink"
   viewBox="0 0 1282.2809 495.32501"
   height="495.32501"
   width="1282.2809"
   version="1.1"
   id="svg4248">
  <metadata
     id="metadata4254">
    <rdf:RDF>
      <cc:Work
         rdf:about="">
        <dc:format>image/svg+xml</dc:format>
        <dc:type
           rdf:resource="http://purl.org/dc/dcmitype/StillImage" />
        <dc:title></dc:title>
      </cc:Work>
    </rdf:RDF>
  </metadata>
  <defs
     id="defs4252">
    <linearGradient
       id="linearGradient4907">
      <stop
         id="stop4909"
         offset="0"
         style="stop-color:#e18814;stop-opacity:1;" />
      <stop
         id="stop4911"
         offset="1"
         style="stop-color:#e18814;stop-opacity:0;" />
    </linearGradient>
    <clipPath
       id="clipPath6361"
       clipPathUnits="userSpaceOnUse">
      <path
         id="path6363"
         d="M 700.05153,118.56714 A 248.4179,258.12621 4.1334714 0 0 487.73707,242.08862 l -438.494138,0 0,278.72266 442.853518,0 A 248.4179,258.12621 4.1334714 0 0 697.31129,634.72144 248.4179,258.12621 4.1334714 0 0 903.90113,520.81128 l 438.72857,0 0,-278.72266 -431.45903,0 A 248.4179,258.12621 4.1334714 0 0 700.05153,118.56714 Z"
         style="fill:url(#linearGradient6365);fill-opacity:1;stroke:#e18814;stroke-width:1.10315979;stroke-opacity:1" />
    </clipPath>
    <linearGradient
       y2="407.87125"
       x2="979.46533"
       y1="407.87125"
       x1="532.23291"
       gradientTransform="matrix(1.113615,0,-0.00580083,1.092805,-140.67704,-69.079792)"
       gradientUnits="userSpaceOnUse"
       id="linearGradient6365"
       xlink:href="#linearGradient4907" />
  </defs>
  <g
     clip-path="url(#clipPath6361)"
     transform="translate(-55.219143,-134.40583)"
     id="g4798">
    <path
       id="path4802"
       d="m 669.375,628.69038 c -41.36534,-3.10706 -90.0269,-23.31885 -125.90889,-52.29683 -13.09066,-10.5719 -33.87124,-31.60744 -42.91551,-43.44206 -4.08407,-5.34412 -9.1131,-11.47879 -11.1756,-13.63264 l -3.75,-3.91606 -123.125,-0.8257 c -67.71875,-0.45413 -163.90625,-0.83461 -213.75,-0.84553 -49.84375,-0.0112 -91.33073,-0.46791 -92.19329,-1.01555 -1.244758,-0.7903 -1.502627,-28.0562 -1.25,-132.16836 L 55.625,249.375 202.5,248.6182 c 80.78125,-0.41625 177.44687,-0.83813 214.8125,-0.9375 L 485.25,247.5 l 3.9375,-4.11746 c 2.16562,-2.2646 7.29306,-8.50784 11.39431,-13.87387 9.05115,-11.84242 26.35084,-29.50681 40.68546,-41.54318 26.93059,-22.61284 59.32068,-38.92322 97.30103,-48.99702 l 17.0567,-4.52406 42.5,-0.0348 c 40.68651,-0.0333 43.00671,0.0924 54.375,2.9447 41.57399,10.43081 79.18705,29.38343 107.518,54.17659 13.95011,12.2081 30.68235,30.09193 40.28625,43.05894 6.10496,8.24281 8.66323,10.70261 12.15184,11.68416 2.79711,0.78697 81.03317,1.53181 213.16891,2.02942 134.1645,0.50527 209.3083,1.22678 210.3125,2.01938 1.232,0.97239 1.5625,28.66304 1.5625,130.9271 0,102.26229 -0.3305,129.95542 -1.5625,130.93044 -1.0075,0.79728 -75.7154,1.50543 -210.3125,1.99351 -134.85713,0.48901 -210.29865,1.20492 -213.125,2.02245 -3.43937,0.99484 -6.24624,3.73906 -13.125,12.83205 -33.77808,44.65106 -78.49592,75.9304 -131.16648,91.7486 -16.10328,4.8362 -28.63438,6.66906 -54.45852,7.96539 -26.42176,1.32632 -26.01759,1.3268 -44.375,-0.0521 z m 58.75,-11.3529 c 37.7117,-3.91468 80.1976,-21.81319 116.20829,-48.95637 14.21656,-10.71579 36.03125,-33.19961 46.20868,-47.62609 4.76683,-6.75696 9.36104,-12.97946 10.20934,-13.82776 1.20549,-1.2055 47.6844,-1.69271 212.80609,-2.23074 116.195,-0.37861 211.8664,-1.06091 212.6031,-1.51622 1.616,-0.9987 1.9278,-242.66923 0.3144,-243.66634 -0.5639,-0.34847 -96.2393,-1.03476 -212.6121,-1.52509 -164.48846,-0.69306 -211.92821,-1.23286 -213.12036,-2.42501 -0.84343,-0.84341 -5.38023,-6.96023 -10.0818,-13.59292 -20.02754,-28.25366 -49.60411,-53.76913 -83.23309,-71.80453 -21.20219,-11.37083 -55.06285,-22.33665 -77.81501,-25.20048 -18.35039,-2.30978 -63.308,-0.93093 -77.45686,2.3756 -38.17067,8.92031 -75.70385,27.14131 -104.69587,50.82607 -13.0154,10.63281 -32.37332,31.35495 -42.58153,45.5824 l -9.4172,13.125 -214.29304,1.00049 c -138.10575,0.64478 -214.732322,1.4396 -215.528617,2.23557 -1.866387,1.86565 -1.681013,240.59735 0.188273,242.46664 1.047667,1.04766 57.990874,1.63831 215.528514,2.23557 l 214.10466,0.81173 9.43101,13.125 c 16.87604,23.48616 40.27267,45.65325 66.29061,62.8069 22.14001,14.59692 43.27277,23.54004 75.06751,31.76761 24.6492,6.3785 48.04171,7.52505 81.875,4.01297 z m -58.31666,-30.38395 c -3.43983,-7.54959 5.2941,-13.05589 10.89397,-6.86811 2.13518,2.35935 2.17604,2.87854 0.46724,5.9375 -2.70276,4.83828 -9.3333,5.38139 -11.36121,0.93061 z m 47.11225,0.59683 c -1.50265,-1.66039 -1.96167,-3.46655 -1.4247,-5.60596 1.57452,-6.27343 13.25411,-5.33538 13.25411,1.06451 0,6.41915 -7.51807,9.30544 -11.82941,4.54145 z m -91.64245,-9.49624 c -3.2644,-2.28647 -3.5306,-5.17356 -0.83227,-9.02598 3.64674,-5.20644 11.80413,-2.37524 11.80413,4.09686 0,6.02527 -5.73102,8.59995 -10.97186,4.92912 z m 137.5,0 c -3.2644,-2.28647 -3.5306,-5.17356 -0.83226,-9.02598 3.64673,-5.20644 11.80412,-2.37524 11.80412,4.09686 0,6.02527 -5.73102,8.59995 -10.97186,4.92912 z M 583.21429,556.78571 c -1.08037,-1.08035 -1.96429,-3.0491 -1.96429,-4.375 0,-2.56532 4.12361,-7.41071 6.30681,-7.41071 1.96485,0 7.44319,5.87264 7.44319,7.9789 0,2.78281 -3.55989,5.7711 -6.875,5.7711 -1.62054,0 -3.83036,-0.88392 -4.91071,-1.96429 z m 221.18214,-0.0679 c -2.62275,-2.62275 -1.97267,-7.84665 1.24026,-9.9663 5.54315,-3.65694 12.37107,4.99316 8.05057,10.19903 -1.99382,2.40242 -6.77547,2.28264 -9.29083,-0.23273 z M 547.5,527.5 c -3.00865,-3.00865 -3.12584,-4.80022 -0.55413,-8.47186 2.36008,-3.36949 6.92273,-3.60017 9.73539,-0.49221 2.88073,3.18316 2.58031,7.21399 -0.7094,9.51819 -3.67164,2.57172 -5.46321,2.45453 -8.47186,-0.55412 z m 295.11874,0.89024 c -6.68013,-3.39336 -4.94508,-12.14024 2.40816,-12.14024 6.25704,0 8.43487,8.46536 3.08641,11.99699 -2.00075,1.3211 -3.11849,1.35025 -5.49457,0.14325 z m -161.05639,-4.55768 c -2.78451,-2.01709 -5.46214,-4.31364 -5.95026,-5.10345 C 674.50513,516.938 664.3185,512.5 661.31431,512.5 c -3.74555,0 -19.08175,-8.37859 -25.53282,-13.9493 -6.42184,-5.54545 -15.9317,-19.26216 -19.29749,-27.83406 -1.68663,-4.29547 -2.07035,-13.05667 -2.45395,-56.02914 -0.44035,-49.3285 -0.37986,-50.9375 1.91473,-50.9375 1.30318,0 3.61131,1.32191 5.12916,2.93759 6.61822,7.04479 40.32469,19.56241 52.67606,19.56241 7.94161,0 25.71115,-5.18809 38.37126,-11.20309 8.95975,-4.2569 12.51616,-7.07666 28.32447,-22.45752 L 758.52392,335 l 8.1358,0 c 10.4764,0 11.64358,0.52417 14.95603,6.71666 2.73471,5.11248 2.75925,5.68708 2.75925,64.62591 l 0,59.46758 -5.29815,10.69376 c -10.4583,21.10903 -23.84259,31.63722 -47.39895,37.2844 -2.85841,0.68525 -8.13329,3.26564 -11.72194,5.73419 -9.53907,6.56174 -13.81667,7.9775 -24.10326,7.9775 -8.22301,0 -9.77878,-0.39926 -14.29035,-3.66744 z m 20.26786,-40.52024 c 1.59683,-1.16763 2.47512,-3.76759 2.85025,-8.4375 0.44823,-5.57975 0.0354,-7.49152 -2.38162,-11.02846 -3.69111,-5.40142 -5.2512,-5.894 -8.47071,-2.67449 -2.13328,2.13328 -2.57813,4.15263 -2.57813,11.70313 0,5.43055 0.6073,9.7323 1.5,10.625 1.99033,1.99033 6.22121,1.90287 9.08021,-0.18768 z m -26.72726,-57.74056 c 2.05084,-1.06052 3.36023,-2.52459 2.90975,-3.25346 -0.95477,-1.54488 -12.90357,-7.28814 -15.2002,-7.30609 -2.69744,-0.0211 -1.70096,6.21296 1.50569,9.4196 3.57012,3.57014 5.65845,3.79088 10.78476,1.13995 z M 732,423.25 c 3.97781,-3.97781 5.74855,-9.5 3.04627,-9.5 -2.39998,0 -14.46781,5.2122 -16.29627,7.0385 -1.66648,1.6645 -1.5468,2.14185 1.07597,4.29214 4.23537,3.47236 7.3375,3.00589 12.17403,-1.83064 z m -213.90925,66.71215 c -5.15041,-5.69114 3.68026,-14.52181 9.3714,-9.3714 2.81022,2.54321 3.36271,8.08439 1.03785,10.40925 -2.32486,2.32486 -7.86604,1.77238 -10.40925,-1.03785 z m 350.93739,0.59198 c -3.2644,-2.28648 -3.5306,-5.17357 -0.83226,-9.02599 C 871.84261,476.3217 880,479.1529 880,485.625 c 0,6.02528 -5.73102,8.59995 -10.97186,4.92913 z M 95,473.75 c -3.149251,-3.14925 -3.186369,-6.49138 -0.103075,-9.28171 3.242305,-2.93425 7.746565,-2.05469 9.986955,1.95017 1.65091,2.95114 1.61977,3.63324 -0.29955,6.5625 -2.55775,3.9036 -6.160666,4.1927 -9.58433,0.76904 z m 46.97504,0.1105 c -4.79359,-5.29685 0.65056,-13.85881 7.26818,-11.43059 3.58638,1.31596 4.44965,9.85634 1.23398,12.2077 -3.10296,2.26894 -5.98383,2.00563 -8.50216,-0.77711 z M 188.75,473.75 c -4.00839,-4.00839 -3.16555,-8.28785 2.1875,-11.10685 6.07259,-3.19792 11.32115,4.34852 7.29647,10.49096 -2.46472,3.76165 -6.10201,3.99785 -9.48397,0.61589 z m 47.06874,0.21408 C 233.39887,471.29016 233.10519,466.14481 235.25,464 c 0.825,-0.825 2.9625,-1.5 4.75,-1.5 4.34787,0 6.25,2.15504 6.25,7.08102 0,6.21774 -6.35451,8.88782 -10.43126,4.38306 z m 54.19287,-0.82672 c -2.50162,-2.66286 -2.71987,-3.561 -1.5104,-6.21551 1.88972,-4.14746 7.08574,-5.40937 10.29915,-2.50126 3.0737,2.78165 3.1455,7.0622 0.16371,9.76067 -3.16821,2.86719 -5.53775,2.59089 -8.95246,-1.0439 z m 47.76653,1.16676 c -3.08587,-2.16142 -3.79987,-8.18058 -1.21564,-10.24808 3.52791,-2.82249 7.03618,-2.95736 9.62356,-0.36998 3.24309,3.24309 3.26608,6.8618 0.064,10.06394 -3.00865,3.00865 -4.80022,3.12584 -8.47186,0.55413 z m 46.98072,-0.24162 c -4.2649,-4.96618 -3.74115,-8.76226 1.60362,-11.62269 6.26468,-3.35277 11.77494,6.83339 6.3516,11.74145 -2.94375,2.66406 -5.59939,2.62441 -7.95522,-0.11875 z m 46.76928,0.24162 C 426.35141,470.6782 429.14565,462.5 435.56123,462.5 c 3.63868,0 6.00127,2.79272 6.00127,7.09386 0,3.20475 -3.05841,6.65614 -5.89828,6.65614 -0.74687,0 -2.60812,-0.87565 -4.13608,-1.94588 z M 477.5487,473.5143 C 476.14691,472.00966 475,470.16607 475,469.41742 c 0,-2.86869 4.01313,-6.91742 6.8566,-6.91742 6.21164,0 9.1851,7.53858 4.60747,11.68126 -3.10153,2.80685 -5.87212,2.59959 -8.91537,-0.66696 z m 433.27004,0.44978 C 908.39888,471.29016 908.10519,466.14481 910.25,464 c 0.825,-0.825 2.9625,-1.5 4.75,-1.5 4.34787,0 6.25,2.15504 6.25,7.08102 0,6.21774 -6.35451,8.88782 -10.43126,4.38306 z M 957.5,473.75 c -3.16553,-3.16553 -3.18349,-6.49397 -0.0504,-9.32941 5.07582,-4.59355 13.05732,1.16015 9.90722,7.14191 -2.79398,5.30551 -6.02237,6.02199 -9.85685,2.1875 z m 47.0687,0.21408 c -4.2711,-4.71949 -1.5443,-11.46408 4.6348,-11.46408 5.2295,0 7.6218,7.96062 3.5106,11.68126 -2.9711,2.68881 -5.5784,2.6193 -8.1454,-0.21718 z m 46.25,0 c -2.714,-2.99893 -2.6256,-6.82265 0.2172,-9.39534 3.0552,-2.76494 5.9253,-2.6075 9.028,0.4952 2.8321,2.83204 2.3842,6.92079 -1.054,9.62356 -2.8036,2.20386 -5.7799,1.941 -8.1912,-0.72342 z m 47.6188,0.93579 c -2.5459,-1.48283 -2.9943,-8.59303 -0.6875,-10.89987 3.6999,-3.69986 11,0.0929 11,5.71505 0,2.55981 -4.2268,6.5743 -6.8406,6.49694 -0.7064,-0.0209 -2.2688,-0.61135 -3.4719,-1.31212 z m 49.7875,-1.03933 c -5.4346,-6.00525 2.0341,-14.90723 7.9871,-9.51979 3.2728,2.96179 3.3398,8.8921 0.1201,10.61527 -3.5268,1.88745 -5.6697,1.59789 -8.1072,-1.09548 z M 1195,473.75 c -3.1655,-3.16553 -3.1835,-6.49397 -0.05,-9.32941 5.0758,-4.59355 13.0573,1.16015 9.9072,7.14191 -2.7939,5.30551 -6.0223,6.02199 -9.8568,2.1875 z m 47.0687,0.21408 c -4.271,-4.71949 -1.5443,-11.46408 4.6348,-11.46408 5.2295,0 7.6219,7.96062 3.5106,11.68126 -2.9711,2.68881 -5.5784,2.6193 -8.1454,-0.21718 z m 46.2501,0 c -2.4843,-2.74511 -2.6577,-6.43099 -0.4447,-9.4574 2.4229,-3.31344 8.4638,-2.20173 10.8052,1.98846 1.7632,3.15566 1.6922,3.57329 -1.1161,6.5625 -3.5418,3.7702 -6.3992,4.05037 -9.2445,0.90644 z m -491.8307,-15.28055 -2.88691,-1.15802 0.38691,-24.3282 c 0.24644,-15.496 0.88512,-24.82533 1.75924,-25.69758 2.57126,-2.56575 7.51368,1.11283 10.66298,7.93635 4.10955,8.90402 10.29039,15.37445 18.78013,19.66006 7.98849,4.03257 9.80955,6.41031 9.80955,12.8082 0,7.15264 -3.31653,9.90666 -13.25961,11.01069 -11.51203,1.27822 -21.72192,1.18462 -25.25229,-0.2315 z m -226.39737,-4.47711 c -5.62594,-7.15221 -2.04683,-15.86902 8.41534,-20.49528 7.9502,-3.51549 12.1021,-7.77118 17.39296,-17.82774 4.88496,-9.28509 7.91643,-11.94184 10.32065,-9.04494 1.59537,1.9223 2.23223,46.86004 0.69925,49.34045 -0.50772,0.82151 -7.13559,1.32109 -17.52698,1.32109 -16.56378,0 -16.73325,-0.0289 -19.30123,-3.29358 z M 95.217892,429.60694 c -3.502388,-3.72813 -3.430461,-6.00173 0.300763,-9.50704 3.629866,-3.41008 7.218305,-2.69254 9.291645,1.85794 1.98371,4.35376 1.81258,6.06723 -0.84623,8.47342 -3.12124,2.82469 -5.531524,2.59751 -8.746178,-0.82432 z m 1193.100908,0.60713 c -2.4843,-2.7451 -2.6577,-6.43098 -0.4447,-9.4574 2.4229,-3.31343 8.4638,-2.20172 10.8052,1.98847 1.7632,3.15566 1.6922,3.57328 -1.1161,6.5625 -3.5418,3.7702 -6.3992,4.05037 -9.2445,0.90643 z M 358.55769,421.25 c -3.76813,-3.76813 -6.05769,-4.74677 -6.05769,-2.58929 0,4.48156 -11.98399,7.03348 -16.56206,3.52679 -1.88255,-1.44199 -1.86018,-2.5266 0.29002,-14.0625 2.49646,-13.39368 10.56184,-50.78062 12.58142,-58.32109 1.30916,-4.88797 5.46533,-7.30391 12.56503,-7.30391 5.16868,0 6.02874,2.74025 4.07051,12.96925 -1.89063,9.87605 -1.58298,12.04398 1.70336,12.00295 5.70022,-0.0711 12.83985,-10.26341 12.84705,-18.34 0.0125,-13.87654 -17.27393,-17.34675 -33.89692,-6.80476 -7.03592,4.46205 -11.38286,12.66991 -12.12202,22.88872 -0.59609,8.24086 -2.70413,9.9672 -7.66451,6.27673 -2.54564,-1.89393 -3.25364,-3.60313 -3.51869,-8.49445 -0.88109,-16.2603 17.67396,-31.01849 41.06439,-32.6615 11.08761,-0.77883 16.98467,0.78391 23.04831,6.10786 7.94539,6.97615 8.58,15.8575 1.88716,26.411 l -3.67647,5.7972 4.24141,5.07662 c 4.44025,5.31465 4.91731,6.39927 6.22956,14.16314 1.09746,6.49305 3.04779,5.35633 6.85741,-3.99679 4.17882,-10.25948 10.22409,-17.25675 18.06207,-20.9064 8.61648,-4.01213 15.68623,-3.92772 20.64706,0.24654 3.34281,2.81279 3.84591,4.0473 3.84591,9.43708 0,10.48182 -4.8777,16.69343 -18.4154,23.4515 -8.81195,4.39895 -10.78711,7.96576 -7.33159,13.23957 9.10178,13.89105 31.517,-6.37501 43.3107,-39.15809 3.13502,-8.71442 5.53167,-10.9261 13.15908,-12.14342 8.7879,-1.40254 9.58979,0.62351 11.26452,28.46146 0.83755,13.92214 2.2299,17.92738 5.76104,16.57235 4.10686,-1.57595 9.70194,-20.99657 9.73318,-33.78406 0.01,-4.15938 0.64407,-8.1881 1.4087,-8.95273 0.76461,-0.76461 2.36466,-4.39273 3.55565,-8.0625 2.47936,-7.63958 5.39208,-9.75075 13.49162,-9.77885 l 5.3125,-0.0184 0,8.33908 c 0,5.85533 0.5898,8.9908 1.98025,10.52722 1.82927,2.02133 1.71016,2.35735 -1.5625,4.4076 -1.94851,1.2207 -3.6633,2.27586 -3.81063,2.34482 C 522.25627,368.39994 515,404.0539 515,406.72497 c 0,1.58817 1.125,3.90569 2.5,5.15005 1.375,1.24436 2.5,2.92099 2.5,3.72584 0,2.79002 -6.02779,7.10722 -10.81464,7.74565 -5.92733,0.79052 -10.9898,-2.68119 -12.11522,-8.3083 -1.06355,-5.31777 -3.92073,-4.91882 -15.36846,2.14592 -8.96728,5.53396 -10.18199,5.93433 -18.01395,5.9375 -7.54113,0.002 -8.99624,-0.4257 -14.25722,-4.20085 l -5.85893,-4.20423 -7.72329,3.91652 c -14.9363,7.5743 -28.97916,6.20381 -34.2264,-3.34026 -1.41146,-2.56729 -2.9418,-6.77717 -3.40074,-9.35529 -0.45894,-2.57813 -1.37854,-4.6875 -2.04355,-4.6875 -0.66502,0 -2.53784,2.95312 -4.16182,6.5625 -3.24114,7.20359 -9.44114,13.79912 -14.90965,15.86084 C 375.17075,424.403 371.04935,425 367.94748,425 c -4.59977,0 -6.33132,-0.69154 -9.38979,-3.75 z m 104.33698,-8.95418 c 4.73034,-2.51939 5.77442,-5.10499 5.81558,-14.40195 0.0414,-9.33602 -1.43167,-15.39387 -3.7431,-15.39387 -1.94722,0 -4.99764,8.01291 -5.87702,15.43792 -0.56458,4.76702 -1.54867,7.02792 -3.84532,8.83445 l -3.08655,2.42789 2.80935,2.27487 c 3.29504,2.66816 4.269,2.769 7.92706,0.8207 z m -90.47583,-2.21466 c 6.69173,-6.69173 6.71356,-29.03161 0.0319,-32.60755 -1.2575,-0.67299 -4.02476,-1.22361 -6.14947,-1.22361 -3.05962,0 -4.13883,0.71497 -5.18873,3.4375 -2.12111,5.50038 -6.26422,25.50866 -5.85837,28.2918 0.67035,4.59697 13.14235,6.12421 17.1647,2.10186 z M 427.79786,387.534 c 6.051,-4.75971 9.49633,-16.7321 5.28058,-18.34984 -1.05685,-0.40555 -3.0864,0.31523 -4.5101,1.60174 C 425.32357,373.71798 420,384.07676 420,387.45845 c 0,3.29997 3.65367,3.33538 7.79786,0.0755 z m -266.4155,35.07426 c -2.18237,-1.38191 -1.87316,-3.45441 6.07734,-40.73326 3.37235,-15.8125 6.30789,-30.92348 6.52341,-33.57994 0.57493,-7.0858 -2.03396,-8.27213 -9.7647,-4.44032 -7.34588,3.64106 -11.04867,9.98975 -12.34607,21.1682 -0.47758,4.11485 -1.33333,7.76893 -1.90166,8.12018 -2.58475,1.59747 -7.52877,-2.46668 -8.81598,-7.24703 -4.19155,-15.56622 9.74633,-31.46574 30.51569,-34.81054 7.80314,-1.25666 55.61962,0.82151 57.23014,2.4873 0.42653,0.44119 0.013,4.17715 -0.91898,8.30215 -0.93196,4.125 -2.06271,10.4526 -2.51278,14.06132 l -0.81828,6.56134 9.43302,-0.79738 c 8.99372,-0.76026 9.58399,-0.64642 12.67475,2.44435 2.81547,2.81546 3.23597,4.27651 3.19783,11.11106 -0.0241,4.32812 -0.84814,11.52556 -1.83109,15.99431 -2.13376,9.7007 -2.37882,18.29108 -0.55395,19.41891 2.23016,1.37832 7.27816,-0.55152 8.77922,-3.35627 0.78234,-1.46181 2.76031,-7.65703 4.39548,-13.76714 3.53089,-13.1938 5.3745,-17.00764 11.51246,-23.81555 5.72704,-6.35214 12.78163,-9.6667 20.65044,-9.7025 5.02213,-0.0229 6.64621,0.58511 9.6875,3.6264 9.23094,9.23094 0.92933,25.6613 -16.68401,33.02063 -5.73684,2.397 -8.18461,6.96217 -6.13958,11.45052 1.57325,3.45291 6.17359,4.11311 13.67319,1.96226 3.71295,-1.06486 4.05425,-0.92671 4.05425,1.64113 0,4.03225 -6.34211,9.5272 -12.62541,10.93896 -7.16091,1.60895 -14.44465,0.31818 -20.18709,-3.57742 L 260,415.91 l -5.20563,3.6075 c -4.3067,2.98455 -6.48392,3.6075 -12.60822,3.6075 -6.5611,0 -7.74555,-0.39869 -10.41938,-3.5072 -3.71116,-4.31449 -3.95171,-11.42081 -0.98168,-29.00026 2.14152,-12.67558 1.36519,-18.11754 -2.5846,-18.11754 -5.26566,0 -8.39533,7.99495 -13.20626,33.73629 -1.47623,7.8987 -3.27272,15.07057 -3.99221,15.9375 -1.49439,1.80064 -11.98806,2.10064 -14.64521,0.41869 -1.93465,-1.22463 -1.47931,-4.07727 8.05641,-50.47214 2.51575,-12.24007 4.23492,-23.60604 3.82037,-25.25774 -0.87442,-3.48391 -7.66693,-5.42281 -11.60818,-3.31351 -2.52384,1.35071 -3.31575,4.32665 -14.31024,53.77686 -4.84715,21.80114 -5.67062,24.31116 -8.30432,25.3125 -3.72458,1.41609 -10.36955,1.4002 -12.62849,-0.0302 z m 126.85863,-34.6742 c 4.05032,-2.65388 8.26784,-10.91291 7.77037,-15.21655 -0.30341,-2.62492 -1.05452,-3.34251 -3.49865,-3.34251 -2.4381,0 -3.99505,1.47729 -7.1875,6.8197 -6.53117,10.92966 -5.03598,16.94955 2.91578,11.73936 z m 623.30161,34.77323 c -1.16327,-0.73839 -1.91451,-10.25184 -2.83631,-35.91835 -1.52445,-42.4464 -1.85384,-45.53894 -4.85035,-45.53894 -6.02353,0 -12.95508,11.55437 -14.43528,24.0625 -0.74532,6.29826 -1.18739,7.18514 -3.57311,7.16836 -3.78929,-0.0266 -5.47371,-1.33484 -7.04705,-5.47305 -2.71156,-7.13192 0.68266,-16.49137 8.56225,-23.61011 8.72137,-7.87924 24.15686,-13.93751 33.53695,-13.16291 l 4.7253,0.39021 0.78149,22.5 c 0.42981,12.375 0.85168,26.85937 0.9375,32.1875 0.11875,7.37243 0.57212,9.6875 1.89727,9.6875 2.03441,0 1.36021,1.61126 10.98376,-26.25 9.36713,-27.11885 13.10629,-36.46113 15.10008,-37.72738 2.30996,-1.46706 11.90168,-1.22598 12.85911,0.32319 0.45748,0.7402 1.37135,14.66208 2.03084,30.9375 0.65949,16.27543 1.67254,30.07395 2.25121,30.66339 1.57833,1.60768 3.12902,-1.98822 13.28852,-30.81491 5.12181,-14.53271 10.154,-27.70756 11.18262,-29.27745 2.31536,-3.53369 6.8126,-3.84624 6.8126,-0.47346 0,4.59072 -30.46851,85.87085 -33.43045,89.18162 -2.08686,2.33264 -12.00243,3.06383 -15.07999,1.11201 -1.15509,-0.73256 -1.99837,-7.24372 -2.87114,-22.16836 -0.67962,-11.62214 -1.53106,-23.03931 -1.89206,-25.3715 -0.57776,-3.73249 -0.87665,-4.02007 -2.49554,-2.40119 -1.01155,1.01154 -5.7439,12.20095 -10.51636,24.86535 -4.77245,12.6644 -9.63684,23.72932 -10.80974,24.58869 -2.36797,1.73499 -12.641,2.08834 -15.11212,0.51979 z m 93.9764,-0.6576 c -2.1208,-0.96545 -5.1304,-3.36846 -6.68785,-5.34003 -2.59069,-3.27943 -2.78911,-4.59578 -2.33029,-15.45966 0.40993,-9.7059 1.15415,-13.31356 4.07434,-19.7506 6.2667,-13.81357 19.3428,-22.85404 30.4494,-21.0517 6.5761,1.06715 10.1932,4.16843 13.4494,11.53134 4.5121,10.20266 9.1821,8.90826 13.9046,-3.85404 l 2.3127,-6.25 6.7854,-0.3867 c 3.7319,-0.21269 8.0692,0.30037 9.6383,1.14015 2.203,1.17903 3.9575,1.19594 7.7015,0.0743 7.225,-2.16466 9.7301,-1.79845 12.5928,1.84091 3.2704,4.15764 3.304,8.49315 0.091,11.70643 -3.3482,3.34824 -6.9918,3.14984 -11.4779,-0.625 -7.7883,-6.55341 -9.6032,-3.78364 -15.9944,24.41037 -2.6947,11.88705 -5.6314,22.07712 -6.526,22.64458 -2.2363,1.41846 -10.6744,1.33314 -13.419,-0.13569 -2.4818,-1.32824 -2.5299,-0.52625 1.2564,-20.93497 2.1943,-11.82762 2.199,-16.60929 0.016,-16.60929 -2.6485,0 -5.553,4.13307 -8.3584,11.89369 -4.6836,12.95613 -8.5696,18.85407 -14.846,22.53232 -6.7515,3.95661 -17.0747,5.15338 -22.6318,2.62368 z m 23.5509,-19.63884 c 3.0189,-5.94659 3.4827,-8.40914 3.75,-19.91085 0.2999,-12.89959 0.255,-13.13209 -2.6105,-13.53795 -6.9616,-0.986 -13.966,13.14825 -14.9346,30.13671 -0.7208,12.64144 0.1756,14.24313 6.5239,11.65682 2.684,-1.09349 4.8547,-3.58473 7.2712,-8.34473 z m 76.4563,19.63304 c -6.1221,-2.77328 -8.4385,-9.16014 -7.7226,-21.29254 0.743,-12.59211 4.3561,-22.3427 11.1312,-30.03964 6.9266,-7.86905 10.4728,-9.46171 21.0669,-9.46171 8.8376,0 8.8831,-0.0175 10.5472,-4.0625 0.9193,-2.23437 2.0751,-6.51262 2.5685,-9.50721 0.4933,-2.99459 1.922,-6.46966 3.1747,-7.72239 2.7556,-2.75559 13.3025,-4.61334 15.2327,-2.68312 0.9491,0.9491 -0.5878,10.88406 -5.2989,34.25435 -6.8344,33.90286 -7.216,39.72087 -2.6051,39.72087 2.8684,0 3.7532,-1.05639 11.1508,-13.31299 5.8318,-9.66228 10.2709,-19.06116 14.53,-30.76377 2.5038,-6.87985 5.0181,-8.59518 12.9846,-8.85848 8.3379,-0.27556 9.058,1.84304 9.8503,28.98285 0.6328,21.67808 0.5911,22.15455 -2.3085,26.34365 -4.4295,6.39949 -11.3487,9.49167 -21.078,9.41982 -6.0513,-0.0448 -9.2417,-0.74653 -12.5005,-2.74992 l -4.3755,-2.68991 -5.6245,2.55655 c -8.2979,3.77171 -16.2567,3.59016 -21.0953,-0.48124 l -3.8938,-3.2764 -5.4335,3.03688 c -6.8656,3.83727 -15.1968,4.89889 -20.3007,2.58685 z m 75.3416,-11.31264 c 3.2835,-2.8262 3.4993,-3.61009 3.3832,-12.28899 -0.068,-5.09863 -0.5109,-10.8114 -0.9836,-12.69505 -1.7877,-7.12258 -6.6037,-0.38462 -8.2157,11.49433 -0.6918,5.09799 -1.6814,7.4956 -3.6266,8.78717 -3.2436,2.15373 -3.4351,4.65444 -0.4876,6.37117 3.4759,2.0245 6.1645,1.57271 9.9303,-1.66863 z m -52.5426,-4.24689 c 3.286,-4.89256 8.2958,-25.39487 7.7098,-31.55183 -0.3485,-3.6618 -0.9316,-4.36743 -3.8896,-4.70712 -2.5977,-0.29831 -4.4159,0.60266 -7.1735,3.55466 -6.6374,7.10538 -11.0799,28.22828 -7.3878,35.12702 2.0335,3.7996 7.3706,2.59579 10.7411,-2.42273 z M 95.217892,385.85694 c -3.502388,-3.72813 -3.430461,-6.00173 0.300763,-9.50704 3.648705,-3.42778 7.816405,-2.60401 9.522015,1.88206 1.88431,4.95613 -1.38102,10.51804 -6.175011,10.51804 -0.511431,0 -2.152925,-1.30188 -3.647766,-2.89306 z M 1288.75,386.25 c -1.375,-1.375 -2.5,-3.625 -2.5,-5 0,-2.89108 4.1691,-7.5 6.7843,-7.5 1.9926,0 6.9657,5.7655 6.9657,8.07567 0,1.88008 -5.2946,6.92433 -7.2681,6.92433 -0.815,0 -2.6069,-1.125 -3.9819,-2.5 z M 654.16921,374.47172 c -13.43418,-3.25808 -27.74703,-12.99381 -39.71472,-27.01432 -14.38264,-16.84969 -20.2012,-41.53113 -15.01879,-63.7074 5.35307,-22.9066 22.43391,-44.63928 43.0798,-54.81225 21.07574,-10.38479 48.2866,-9.89081 70.41231,1.27821 5.09148,2.57016 12.271,8.45275 22.78739,18.67096 17.392,16.8989 22.86844,20.07083 38.6598,22.39152 17.74695,2.60808 25.47497,7.89588 28.93517,19.79855 2.37569,8.17207 1.52835,14.97005 -2.78297,22.32728 -4.56543,7.79087 -11.38751,11.22949 -26.8723,13.54482 -7.14366,1.06813 -15.2478,2.94277 -18.00919,4.16586 -3.01391,1.33493 -11.51592,8.69146 -21.27071,18.40487 -17.52171,17.4474 -23.52751,21.33644 -38.34381,24.82935 -9.57939,2.25833 -32.77543,2.32623 -41.86198,0.1225 z M 665.625,348.77924 c 0,-1.19592 -2.20046,-2.33603 -6.25,-3.23827 -8.78219,-1.95666 -12.99271,-4.42033 -19.4307,-11.36932 -5.76257,-6.21996 -8.87357,-12.31254 -10.74689,-21.04665 -0.67229,-3.13449 -1.77197,-5 -2.94741,-5 -1.43651,0 -1.82585,1.40972 -1.66485,6.02812 0.4039,11.58588 10.58782,27.03714 21.20904,32.17878 10.19941,4.93745 19.83081,6.12608 19.83081,2.44734 z M 95.407645,342.00511 c -3.058785,-2.63105 -3.330295,-3.42559 -2.234935,-6.54022 0.758448,-2.15664 2.635823,-4.03383 4.792895,-4.79244 3.060605,-1.07635 3.880935,-0.83353 5.992145,1.7737 2.76186,3.41075 2.24367,8.4066 -1.14008,10.99135 -2.78912,2.13054 -3.406665,2.01116 -7.410025,-1.43239 z M 1288.75,342.5 c -3.1197,-3.11976 -3.2141,-7.71629 -0.2141,-10.43126 3.244,-2.9357 5.8877,-2.57077 8.8734,1.22484 3.3061,4.20301 3.2576,5.64412 -0.3024,8.98853 -3.5815,3.36465 -5.1688,3.40604 -8.3569,0.21789 z M 95.407645,298.25511 c -3.058785,-2.63105 -3.330295,-3.42558 -2.234935,-6.54022 0.758447,-2.15664 2.635823,-4.03383 4.792895,-4.79244 3.060605,-1.07635 3.880935,-0.83352 5.992145,1.7737 2.76186,3.41075 2.24367,8.4066 -1.14008,10.99135 -2.78912,2.13054 -3.406665,2.01116 -7.410025,-1.43239 z m 195.160545,-0.0733 c -3.73045,-3.73045 -3.77034,-4.45202 -0.47747,-8.63824 3.03287,-3.85566 6.19584,-4.20626 9.09054,-1.00765 2.78163,3.07367 2.60849,7.17433 -0.43126,10.21408 -3.23641,3.23641 -4.46236,3.15127 -8.18181,-0.56819 z m 761.03171,1.79308 c -1.5263,-0.61417 -3.1476,-2.60071 -3.6028,-4.41455 -1.1366,-4.5284 4.1197,-9.99127 8.5448,-8.88063 5.9813,1.50121 6.7145,10.23955 1.1108,13.23858 -2.8431,1.52155 -2.4219,1.51761 -6.0528,0.0566 z m 97.337,-0.93053 c -4.2415,-3.61502 -4.0401,-9.73142 0.3869,-11.74847 5.7726,-2.63018 11.9667,4.46704 8.4696,9.70448 -0.5051,0.75646 -2.1318,2.01392 -3.6148,2.79436 -2.1722,1.14308 -3.1914,0.99717 -5.2417,-0.75037 z m 45.6318,-0.0803 c -4.0563,-4.48229 -1.1418,-12.71416 4.5015,-12.71416 1.9976,0 7.1798,5.57601 7.1798,7.72539 0,1.78437 -5.943,7.27461 -7.8744,7.27461 -0.956,0 -2.6691,-1.02866 -3.8069,-2.28593 z M 1241.25,298.75 c -2.8371,-2.83711 -2.966,-3.61144 -1.3216,-7.93666 1.5645,-4.11487 5.6381,-5.29874 9.5078,-2.76319 4.7606,3.11926 4.0108,8.84019 -1.5415,11.76272 -3.5769,1.88273 -3.7224,1.85945 -6.6447,-1.06287 z M 141.5,298.5 c -2.64895,-2.64895 -1.7799,-8.25897 1.625,-10.48995 2.89484,-1.89676 3.35516,-1.89676 6.25,0 3.59309,2.35429 4.1367,7.04967 1.16071,10.02566 -2.33131,2.33131 -6.93227,2.56773 -9.03571,0.46429 z m 46.67059,-0.94964 c -4.41834,-4.8822 1.13317,-13.0989 6.80076,-10.0657 4.23016,2.26391 5.49493,5.99254 3.21368,9.47416 -2.42393,3.69937 -6.95945,3.96728 -10.01444,0.59154 z m 46.20001,-0.50664 c -4.11959,-6.28729 2.55443,-13.09605 8.8156,-8.99357 3.65525,2.39501 4.01403,6.95244 0.77788,9.88111 -3.24739,2.93884 -7.33405,2.56076 -9.59348,-0.88754 z m 102.59369,0.99199 c -2.97599,-2.97598 -2.43238,-7.67137 1.16071,-10.02566 2.89484,-1.89676 3.35516,-1.89676 6.25,0 3.4049,2.23098 4.27395,7.841 1.625,10.48995 -2.10344,2.10344 -6.7044,1.86702 -9.03571,-0.46429 z m 46.10069,-1.07689 c -2.28125,-3.48162 -1.01649,-7.21025 3.21367,-9.47416 5.66759,-3.0332 11.2191,5.1835 6.80076,10.0657 -3.05498,3.37574 -7.59051,3.10783 -10.01443,-0.59154 z m 47.87252,1.69105 c -4.61598,-2.68856 -1.51613,-12.39987 3.95805,-12.39987 5.57149,0 8.70209,9.90562 3.93662,12.45602 -2.99527,1.60302 -5.07141,1.58826 -7.89467,-0.0561 z m 45.90325,-1.18772 c -2.61829,-2.89316 -1.5578,-8.07909 2.12468,-10.39004 3.01548,-1.89238 8.27577,0.83654 9.27323,4.81075 1.67376,6.66879 -6.70167,10.76858 -11.39791,5.57929 z m 432.52985,-0.41843 c -4.11959,-6.28729 2.55442,-13.09605 8.8156,-8.99357 3.65525,2.39501 4.01403,6.95244 0.77787,9.88111 -3.24738,2.93884 -7.33405,2.56076 -9.59347,-0.88754 z m 46.92337,0.53845 c -1.9545,-3.65202 -1.5627,-6.95151 1.11303,-9.37301 3.11446,-2.81855 6.08436,-2.16364 9.21367,2.03179 2.37897,3.18945 2.40079,3.53356 0.41615,6.5625 -2.60955,3.98267 -8.78843,4.43057 -10.74285,0.77872 z m 46.92033,0.45354 c -1.0804,-1.08035 -1.9643,-3.0491 -1.9643,-4.375 0,-2.72238 4.1734,-7.41071 6.5969,-7.41071 3.0242,0 7.1531,3.89747 7.1531,6.75215 0,5.84426 -7.6905,9.1288 -11.7857,5.03356 z m 93.6563,-0.99199 c -4.1196,-6.28729 2.5544,-13.09605 8.8156,-8.99357 3.6552,2.39501 4.014,6.95244 0.7779,9.88111 -3.2474,2.93884 -7.3341,2.56076 -9.5935,-0.88754 z m 190.6734,0.53845 c -1.9545,-3.65202 -1.5627,-6.95151 1.113,-9.37301 3.1145,-2.81855 6.0844,-2.16364 9.2136,2.03179 2.379,3.18945 2.4009,3.53356 0.4163,6.5625 -2.6096,3.98267 -8.7885,4.43057 -10.7429,0.77872 z m -769.22526,-16.1181 c -2.96854,-3.2802 -2.55044,-7.34082 0.99506,-9.66392 7.2075,-4.72253 14.74284,4.14117 8.40027,9.88111 -2.99892,2.714 -6.82265,2.6256 -9.39533,-0.21719 z m 350.7094,0.34005 c -3.36949,-2.36007 -3.60016,-6.92272 -0.49221,-9.73538 2.67391,-2.41987 7.81926,-2.71355 9.96407,-0.56874 2.24155,2.24155 1.81001,7.83197 -0.78592,10.18126 -2.85305,2.58198 -5.12911,2.61417 -8.68594,0.12288 z M 546.96429,244.28571 c -2.28354,-2.28353 -2.48528,-4.7266 -0.67031,-8.11789 2.58491,-4.82995 12.45602,-1.62091 12.45602,4.04937 0,2.63853 -4.04909,6.03281 -7.19664,6.03281 -1.44363,0 -3.50872,-0.88393 -4.58907,-1.96429 z M 840,243.75 c -3.7531,-3.7531 -3.1044,-7.09694 1.875,-9.66516 5.69246,-2.936 11.34239,3.65342 8.18731,9.54873 -1.7928,3.34988 -6.77126,3.40748 -10.06231,0.11638 z M 584.02814,215.55412 c -3.41329,-2.39076 -3.58931,-6.93255 -0.38123,-9.83583 3.30756,-2.9933 7.76824,-2.03248 10.06132,2.1672 1.83866,3.36743 1.77384,3.63486 -1.59043,6.5625 -4.13375,3.59723 -4.46789,3.64292 -8.08966,1.10613 z m 222.61607,0.64748 c -4.39942,-1.70865 -5.95163,-5.78969 -3.57924,-9.41043 2.27458,-3.47145 8.19722,-4.16381 10.62229,-1.24176 3.92217,4.72591 -1.43602,12.82985 -7.04305,10.65219 z M 624.56874,193.96407 c -4.80675,-5.3114 0.33852,-12.8632 7.03057,-10.31888 4.19483,1.59486 5.40438,5.64336 2.85054,9.54101 -2.39501,3.65525 -6.95244,4.01402 -9.88111,0.77787 z m 137.5,0 C 758.03207,189.50361 761.10099,182.5 767.09219,182.5 c 3.14038,0 6.65781,3.74692 6.65781,7.09219 0,5.72644 -7.8101,8.64947 -11.68126,4.37189 z m -91.27516,-10.3048 c -1.81147,-1.4249 -3.29358,-3.39365 -3.29358,-4.375 0,-2.61518 4.60892,-6.78427 7.5,-6.78427 2.63677,0 7.5,4.08952 7.5,6.30681 0,1.60555 -5.70543,7.44319 -7.27461,7.44319 -0.62603,0 -2.62035,-1.16582 -4.43181,-2.59073 z m 47.94473,0.952 c -3.50617,-1.73906 -4.83874,-7.40418 -2.42557,-10.31186 0.82135,-0.98967 3.04312,-1.79941 4.93726,-1.79941 4.30744,0 6.55071,2.59395 6.02782,6.97012 -0.57186,4.78603 -4.49437,7.14754 -8.53951,5.14115 z"
       style="fill:#d4d4d4" />
    <path
       id="path4800"
       d="m 685.625,524.17919 c -2.0625,-1.0839 -5.4375,-3.52965 -7.5,-5.43501 -4.42695,-4.08967 -10.81721,-7.49418 -14.06655,-7.49418 -5.42191,0 -23.09028,-10.08252 -30.13045,-17.19408 -8.49452,-8.58063 -15.97066,-22.69886 -17.70294,-33.43092 -1.7057,-10.56746 -1.61847,-94.375 0.0983,-94.375 0.72781,0 3.39969,1.66309 5.9375,3.69574 10.55364,8.45292 37.24918,17.55426 51.48919,17.55426 10.26659,0 26.90493,-4.49565 39.69354,-10.72514 7.40142,-3.60532 12.5112,-7.7363 27.7955,-22.47112 L 759.966,336.25 l 7.46831,0 c 6.09212,0 7.94191,0.50836 10.0385,2.75879 5.29466,5.68316 5.65219,10.02382 5.65219,68.62347 l 0,55.75725 -6.53876,13.15813 c -5.12019,10.30347 -8.04946,14.53881 -13.50211,19.52222 -7.84571,7.17054 -19.41223,13.17938 -29.45387,15.30136 -7.81024,1.65045 -10.12522,2.73145 -16.13026,7.53209 -8.75141,6.99619 -23.84703,9.49478 -31.875,5.27588 z m 18.67912,-40.70733 c 1.25328,-1.7893 1.94588,-5.53695 1.94588,-10.52909 0,-6.51497 -0.51604,-8.36423 -3.23611,-11.59686 -3.73905,-4.44361 -7.87155,-4.95629 -11.10963,-1.37825 -1.75326,1.93734 -2.23321,4.62079 -2.23321,12.48625 0,11.73946 1.17934,13.79609 7.91112,13.79609 3.51843,0 5.28846,-0.73154 6.72195,-2.77814 z m -26.63009,-57.14355 c 2.35919,-1.93606 2.68728,-2.87606 1.63605,-4.6875 -1.46593,-2.52602 -13.71843,-9.03826 -17.12258,-9.10069 -3.39745,-0.0622 -3.01487,9.54304 0.53039,13.31682 3.45575,3.67846 10.76729,3.90891 14.95614,0.47137 z m 56.55552,-2.58191 c 2.48625,-2.75199 4.52045,-5.51848 4.52045,-6.14776 0,-3.17074 -1.8263,-5.0975 -4.82124,-5.08643 -4.03139,0.0149 -15.15301,5.0533 -17.54972,7.95051 -2.71339,3.27999 2.53929,8.28728 8.6934,8.28728 3.82378,0 5.42915,-0.8772 9.15711,-5.0036 z"
       style="fill:#e08917" />
  </g>
</svg>
