<svg viewBox="0 0 1292 512" version="1.1" xml:space="preserve" style="fill-rule:evenodd;clip-rule:evenodd;stroke-linejoin:round;stroke-miterlimit:1.41421;">
  <rect id="Artboard1" x="0" y="0" width="1291.98" height="511.056" style="fill:none;"/>

<g id="Frame">
  <path d="M594.944,501.944c-40.832,-9.305 -66.844,-23.234 -102.726,-52.212c-13.09,-10.572 -33.871,-31.607 -42.915,-43.442c-4.084,-5.344 -9.113,-11.479 -11.176,-13.633l-3.75,-3.916l-123.125,-0.825c-67.718,-0.454 -163.906,-0.835 -213.75,-0.846c-49.843,-0.011 -91.33,-0.468 -92.193,-1.015c-1.245,-0.791 -1.503,-28.057 -1.25,-132.169l0.318,-131.172l146.875,-0.757c80.782,-0.416 177.447,-0.838 214.813,-0.938l67.937,-0.18l3.938,-4.118c2.165,-2.264 7.293,-8.508 11.394,-13.874c9.051,-11.842 26.351,-29.507 40.686,-41.543c26.93,-22.613 59.32,-38.923 97.301,-48.997l17.056,-4.524l33.727,-4.587c52.317,1.889 51.78,4.645 63.148,7.497c41.574,10.431 79.187,29.383 107.518,54.176c13.95,12.209 30.683,30.092 40.287,43.059c6.105,8.243 8.663,10.703 12.151,11.685c2.798,0.787 81.034,1.531 213.169,2.029c134.165,0.505 209.309,1.227 210.313,2.019c1.232,0.973 1.562,28.663 1.562,130.927c0,102.263 -0.33,129.956 -1.562,130.931c-1.008,0.797 -75.716,1.505 -210.313,1.993c-134.857,0.489 -210.298,1.205 -213.125,2.023c-3.439,0.995 -6.246,3.739 -13.125,12.832c-33.778,44.651 -78.496,75.93 -131.166,91.749c-16.103,4.836 -26.728,10.004 -52.521,11.819c-24.698,1.738 -11.227,1.387 -52.65,-0.715c-4.876,-0.247 -9.721,-1.652 -16.846,-3.276Zm81.933,-11.268c37.712,-3.915 80.198,-21.813 116.209,-48.956c14.216,-10.716 36.031,-33.2 46.208,-47.626c4.767,-6.757 9.361,-12.98 10.21,-13.828c1.205,-1.206 47.684,-1.693 212.806,-2.231c116.195,-0.379 211.866,-1.061 212.603,-1.516c1.616,-0.999 1.928,-242.669 0.314,-243.666c-0.564,-0.349 -96.239,-1.035 -212.612,-1.526c-164.488,-0.693 -211.928,-1.232 -213.12,-2.425c-0.844,-0.843 -5.38,-6.96 -10.082,-13.592c-20.028,-28.254 -49.604,-53.77 -83.233,-71.805c-21.202,-11.371 -55.063,-22.337 -77.815,-25.2c-18.35,-2.31 -63.308,-0.931 -77.457,2.375c-38.171,8.92 -75.704,27.141 -104.696,50.826c-13.015,10.633 -32.373,31.355 -42.581,45.583l-9.418,13.125l-214.293,1c-138.105,0.645 -214.732,1.44 -215.528,2.236c-1.867,1.865 -1.681,240.597 0.188,242.466c1.048,1.048 57.991,1.639 215.529,2.236l214.104,0.812l9.431,13.125c16.876,23.486 40.273,45.653 66.291,62.806c22.14,14.597 43.273,23.541 75.067,31.768c24.65,6.379 48.042,7.525 81.875,4.013l0,0Z" />
</g>

<g id="hair">
  <path d="M745.24,332.022l-2.886,-1.158l0.386,-24.328c0.247,-15.496 0.886,-24.825 1.76,-25.698c2.571,-2.565 7.513,1.113 10.663,7.937c4.109,8.904 10.29,15.374 18.78,19.66c7.988,4.032 9.809,6.41 9.809,12.808c0,7.153 -3.316,9.907 -13.259,11.011c-11.512,1.278 -21.722,1.184 -25.253,-0.232l0,0Zm-226.397,-4.477c-5.626,-7.152 -2.047,-15.869 8.415,-20.495c7.951,-3.516 12.103,-7.771 17.393,-17.828c4.885,-9.285 7.917,-11.942 10.321,-9.045c1.595,1.922 2.232,46.86 0.699,49.34c-0.507,0.822 -7.135,1.322 -17.527,1.322c-16.563,0 -16.733,-0.029 -19.301,-3.294l0,0Zm84.079,-79.735c-13.435,-3.258 -27.747,-12.994 -39.715,-27.014c-14.383,-16.85 -20.201,-41.531 -15.019,-63.707c5.353,-22.907 22.434,-44.64 43.08,-54.813c21.076,-10.384 48.286,-9.89 70.412,1.279c5.092,2.57 12.271,8.452 22.788,18.671c17.392,16.898 22.868,20.07 38.659,22.391c17.747,2.608 25.475,7.896 28.936,19.799c2.375,8.172 1.528,14.97 -2.783,22.327c-4.566,7.791 -11.388,11.229 -26.873,13.545c-7.143,1.068 -15.248,2.942 -18.009,4.166c-3.014,1.334 -11.516,8.691 -21.271,18.404c-17.521,17.448 -23.527,21.337 -38.343,24.83c-9.58,2.258 -32.776,2.326 -41.862,0.122l0,0Zm11.455,-25.692c0,-1.196 -2.2,-2.336 -6.25,-3.238c-8.782,-1.957 -12.992,-4.421 -19.43,-11.37c-5.763,-6.22 -8.874,-12.312 -10.747,-21.046c-0.673,-3.135 -1.772,-5 -2.948,-5c-1.436,0 -1.825,1.409 -1.664,6.028c0.403,11.586 10.587,27.037 21.209,32.178c10.199,4.938 19.83,6.127 19.83,2.448Z"/>
</g>

<g id="words">
  <path d="M307.31,294.589c-3.768,-3.769 -6.058,-4.747 -6.058,-2.59c0,4.482 -11.984,7.034 -16.562,3.527c-1.882,-1.442 -1.86,-2.527 0.29,-14.062c2.497,-13.394 10.562,-50.781 12.582,-58.322c1.309,-4.887 5.465,-7.303 12.565,-7.303c5.168,0 6.029,2.74 4.07,12.969c-1.89,9.876 -1.583,12.044 1.704,12.003c5.7,-0.071 12.839,-10.264 12.847,-18.34c0.012,-13.877 -17.274,-17.347 -33.897,-6.805c-7.036,4.462 -11.383,12.67 -12.122,22.889c-0.596,8.241 -2.704,9.967 -7.665,6.276c-2.545,-1.893 -3.253,-3.603 -3.518,-8.494c-0.882,-16.26 17.674,-31.018 41.064,-32.661c11.088,-0.779 16.985,0.783 23.048,6.107c7.946,6.977 8.58,15.858 1.887,26.411l-3.676,5.798l4.241,5.076c4.441,5.315 4.918,6.399 6.23,14.163c1.097,6.493 3.048,5.357 6.857,-3.996c4.179,-10.26 10.224,-17.257 18.062,-20.907c8.617,-4.012 15.687,-3.928 20.647,0.247c3.343,2.812 3.846,4.047 3.846,9.437c0,10.482 -4.877,16.693 -18.415,23.451c-8.812,4.399 -10.787,7.966 -7.332,13.24c9.102,13.891 31.517,-6.375 43.311,-39.158c3.135,-8.715 5.532,-10.926 13.159,-12.144c8.788,-1.402 9.59,0.624 11.265,28.462c0.837,13.922 2.23,17.927 5.761,16.572c4.107,-1.576 9.702,-20.996 9.733,-33.784c0.01,-4.159 0.644,-8.188 1.409,-8.953c0.764,-0.764 2.364,-4.392 3.555,-8.062c2.48,-7.64 5.392,-9.751 13.492,-9.779l5.312,-0.018l0,8.339c0,5.855 0.59,8.99 1.981,10.527c1.829,2.021 1.71,2.357 -1.563,4.408c-1.948,1.22 -3.663,2.275 -3.811,2.344c-0.6,0.282 -7.857,35.935 -7.857,38.607c0,1.588 1.125,3.905 2.5,5.15c1.375,1.244 2.5,2.921 2.5,3.725c0,2.79 -6.027,7.108 -10.814,7.746c-5.928,0.791 -10.99,-2.681 -12.115,-8.308c-1.064,-5.318 -3.921,-4.919 -15.369,2.146c-8.967,5.534 -10.182,5.934 -18.014,5.937c-7.541,0.002 -8.996,-0.425 -14.257,-4.201l-5.859,-4.204l-7.723,3.917c-14.937,7.574 -28.98,6.203 -34.227,-3.341c-1.411,-2.567 -2.942,-6.777 -3.4,-9.355c-0.459,-2.578 -1.379,-4.687 -2.044,-4.687c-0.665,0 -2.538,2.953 -4.162,6.562c-3.241,7.204 -9.441,13.799 -14.91,15.861c-1.935,0.73 -6.056,1.327 -9.158,1.327c-4.6,0 -6.331,-0.692 -9.39,-3.75Zm552.985,1.457c-1.163,-0.739 -1.915,-10.252 -2.836,-35.918c-1.525,-42.447 -1.854,-45.539 -4.851,-45.539c-6.023,0 -12.955,11.554 -14.435,24.062c-0.745,6.298 -1.187,7.185 -3.573,7.168c-3.789,-0.026 -5.474,-1.334 -7.047,-5.473c-2.712,-7.132 0.683,-16.491 8.562,-23.61c8.721,-7.879 24.157,-13.937 33.537,-13.163l4.725,0.391l0.782,22.5c0.43,12.375 0.852,26.859 0.937,32.187c0.119,7.373 0.572,9.688 1.898,9.688c2.034,0 1.36,1.611 10.983,-26.25c9.368,-27.119 13.107,-36.462 15.1,-37.728c2.31,-1.467 11.902,-1.226 12.86,0.323c0.457,0.741 1.371,14.662 2.03,30.938c0.66,16.275 1.673,30.074 2.252,30.663c1.578,1.608 3.129,-1.988 13.288,-30.815c5.122,-14.532 10.154,-27.707 11.183,-29.277c2.315,-3.534 6.812,-3.846 6.812,-0.474c0,4.591 -30.468,85.871 -33.43,89.182c-2.087,2.333 -12.003,3.064 -15.08,1.112c-1.155,-0.732 -1.998,-7.244 -2.871,-22.168c-0.68,-11.622 -1.531,-23.04 -1.892,-25.372c-0.578,-3.732 -0.877,-4.02 -2.496,-2.401c-1.011,1.012 -5.744,12.201 -10.516,24.865c-4.773,12.665 -9.637,23.73 -10.81,24.589c-2.368,1.735 -12.641,2.088 -15.112,0.52l0,0Zm-750.16,-0.099c-2.183,-1.382 -1.873,-3.455 6.077,-40.733c3.372,-15.813 6.308,-30.924 6.523,-33.58c0.575,-7.086 -2.033,-8.272 -9.764,-4.441c-7.346,3.641 -11.049,9.99 -12.346,21.169c-0.478,4.114 -1.334,7.768 -1.902,8.12c-2.585,1.597 -7.529,-2.467 -8.816,-7.247c-4.191,-15.567 9.746,-31.466 30.516,-34.811c7.803,-1.257 55.619,0.822 57.23,2.487c0.426,0.442 0.013,4.178 -0.919,8.303c-0.932,4.125 -2.063,10.452 -2.513,14.061l-0.818,6.561l9.433,-0.797c8.994,-0.76 9.584,-0.647 12.675,2.444c2.815,2.816 3.236,4.277 3.197,11.111c-0.024,4.328 -0.848,11.526 -1.831,15.995c-2.133,9.7 -2.378,18.291 -0.554,19.418c2.231,1.379 7.279,-0.551 8.78,-3.356c0.782,-1.462 2.76,-7.657 4.395,-13.767c3.531,-13.194 5.375,-17.008 11.513,-23.815c5.727,-6.353 12.781,-9.667 20.65,-9.703c5.022,-0.023 6.646,0.585 9.688,3.626c9.23,9.231 0.929,25.662 -16.684,33.021c-5.737,2.397 -8.185,6.962 -6.14,11.451c1.573,3.452 6.174,4.113 13.673,1.962c3.713,-1.065 4.054,-0.927 4.054,1.641c0,4.032 -6.342,9.527 -12.625,10.939c-7.161,1.609 -14.445,0.318 -20.187,-3.577l-4.688,-3.18l-5.205,3.607c-4.307,2.985 -6.484,3.608 -12.608,3.608c-6.562,0 -7.746,-0.399 -10.42,-3.508c-3.711,-4.314 -3.952,-11.42 -0.982,-29c2.142,-12.675 1.366,-18.117 -2.584,-18.117c-5.266,0 -8.395,7.995 -13.206,33.736c-1.477,7.899 -3.273,15.07 -3.993,15.937c-1.494,1.801 -11.988,2.101 -14.645,0.419c-1.934,-1.225 -1.479,-4.077 8.057,-50.472c2.515,-12.24 4.235,-23.606 3.82,-25.258c-0.874,-3.484 -7.667,-5.423 -11.608,-3.313c-2.524,1.35 -3.316,4.326 -14.31,53.777c-4.848,21.801 -5.671,24.311 -8.305,25.312c-3.724,1.416 -10.369,1.4 -12.628,-0.03l0,0Zm844.136,-0.559c-2.12,-0.965 -5.13,-3.368 -6.687,-5.34c-2.591,-3.279 -2.79,-4.596 -2.331,-15.459c0.41,-9.706 1.154,-13.314 4.075,-19.751c6.266,-13.814 19.342,-22.854 30.449,-21.052c6.576,1.067 10.193,4.169 13.449,11.532c4.512,10.202 9.182,8.908 13.905,-3.854l2.313,-6.25l6.785,-0.387c3.732,-0.213 8.069,0.3 9.638,1.14c2.203,1.179 3.958,1.196 7.702,0.074c7.225,-2.164 9.73,-1.798 12.593,1.841c3.27,4.158 3.304,8.493 0.091,11.707c-3.349,3.348 -6.992,3.15 -11.478,-0.625c-7.789,-6.554 -9.603,-3.784 -15.995,24.41c-2.694,11.887 -5.631,22.077 -6.526,22.645c-2.236,1.418 -10.674,1.333 -13.419,-0.136c-2.481,-1.328 -2.53,-0.526 1.257,-20.935c2.194,-11.828 2.199,-16.609 0.016,-16.609c-2.649,0 -5.553,4.133 -8.359,11.893c-4.683,12.956 -8.569,18.854 -14.846,22.533c-6.751,3.956 -17.074,5.153 -22.631,2.623l-0.001,0Zm100.008,-0.006c-6.123,-2.773 -8.439,-9.16 -7.723,-21.292c0.743,-12.592 4.356,-22.343 11.131,-30.04c6.927,-7.869 10.473,-9.461 21.067,-9.461c8.838,0 8.883,-0.018 10.547,-4.063c0.92,-2.234 2.075,-6.513 2.569,-9.507c0.493,-2.995 1.922,-6.47 3.174,-7.723c2.756,-2.755 13.303,-4.613 15.233,-2.683c0.949,0.949 -0.588,10.884 -5.299,34.255c-6.834,33.903 -7.216,39.721 -2.605,39.721c2.869,0 3.753,-1.057 11.151,-13.313c5.832,-9.663 10.271,-19.062 14.53,-30.764c2.504,-6.88 5.018,-8.595 12.985,-8.859c8.337,-0.275 9.058,1.843 9.85,28.983c0.633,21.678 0.591,22.155 -2.309,26.344c-4.429,6.399 -11.348,9.492 -21.078,9.42c-6.051,-0.045 -9.241,-0.747 -12.5,-2.75l-4.376,-2.69l-5.624,2.556c-8.298,3.772 -16.257,3.591 -21.095,-0.481l-3.894,-3.276l-5.434,3.037c-6.865,3.837 -15.197,4.899 -20.3,2.586l0,0Zm-642.632,-9.748c4.73,-2.519 5.774,-5.105 5.816,-14.402c0.041,-9.336 -1.432,-15.393 -3.743,-15.393c-1.948,0 -4.998,8.012 -5.878,15.438c-0.564,4.767 -1.548,7.027 -3.845,8.834l-3.086,2.428l2.809,2.275c3.295,2.668 4.269,2.769 7.927,0.82l0,0Zm717.973,-1.564c3.284,-2.826 3.499,-3.61 3.383,-12.289c-0.068,-5.099 -0.511,-10.812 -0.983,-12.695c-1.788,-7.123 -6.604,-0.385 -8.216,11.494c-0.692,5.098 -1.681,7.496 -3.627,8.787c-3.243,2.154 -3.435,4.655 -0.487,6.371c3.476,2.025 6.164,1.573 9.93,-1.668Zm-808.449,-0.65c6.692,-6.692 6.714,-29.032 0.032,-32.608c-1.257,-0.673 -4.025,-1.223 -6.149,-1.223c-3.06,0 -4.139,0.715 -5.189,3.437c-2.121,5.5 -6.264,25.509 -5.858,28.292c0.67,4.597 13.142,6.124 17.164,2.102l0,0Zm656.651,-7.671c3.019,-5.946 3.483,-8.409 3.75,-19.91c0.3,-12.9 0.255,-13.133 -2.61,-13.538c-6.962,-0.986 -13.966,13.148 -14.935,30.136c-0.721,12.642 0.176,14.243 6.524,11.657c2.684,-1.093 4.855,-3.585 7.271,-8.345l0,0Zm99.256,4.074c3.286,-4.893 8.295,-25.395 7.709,-31.552c-0.348,-3.662 -0.931,-4.367 -3.889,-4.707c-2.598,-0.298 -4.416,0.603 -7.174,3.555c-6.637,7.105 -11.08,28.228 -7.388,35.127c2.034,3.799 7.371,2.595 10.742,-2.423l0,0Zm-700.528,-18.95c6.051,-4.76 9.497,-16.733 5.281,-18.35c-1.057,-0.406 -3.087,0.315 -4.51,1.601c-3.245,2.933 -8.569,13.291 -8.569,16.673c0,3.3 3.654,3.335 7.798,0.076l0,0Zm-139.557,0.4c4.051,-2.654 8.268,-10.913 7.771,-15.217c-0.304,-2.625 -1.055,-3.342 -3.499,-3.342c-2.438,0 -3.995,1.477 -7.187,6.819c-6.532,10.93 -5.036,16.95 2.915,11.74Z" />
</g>

<g id="face">
  <path id="path4800" d="M633.229,398.191c-2.063,-1.084 -5.438,-3.53 -7.5,-5.435c-4.427,-4.09 -10.817,-7.495 -14.067,-7.495c-5.422,0 -23.09,-10.082 -30.13,-17.194c-8.495,-8.58 -15.971,-22.699 -17.703,-33.431c-1.706,-10.567 -0.986,-90.633 0.73,-90.633c0.728,0 2.768,-2.078 5.306,-0.046c10.553,8.453 37.249,17.554 51.489,17.554c10.267,0 26.905,-4.495 39.694,-10.725c4.45,-2.168 8.072,-4.526 13.576,-9.265c3.649,-3.142 8.125,-7.331 14.219,-13.206c0,0 7.817,-7.536 13.351,-12.871c3.449,-3.325 8.053,-5.183 12.844,-5.183c0,0 0,0 0,0c6.092,0 7.942,0.509 10.039,2.759c5.294,5.683 5.652,10.024 5.652,68.624c0,0 0,35.531 0,49.866c0,3.875 -0.897,7.697 -2.622,11.166c-1.819,3.661 -3.917,7.883 -3.917,7.883c-5.12,10.304 -8.049,14.539 -13.502,19.522c-7.846,7.171 -19.412,13.18 -29.454,15.302c-7.81,1.65 -10.125,2.731 -16.13,7.532c-8.751,6.996 -23.847,9.495 -31.875,5.276l0,0Zm18.679,-40.708c1.253,-1.789 1.946,-5.537 1.946,-10.529c0,-6.515 -0.516,-8.364 -3.236,-11.597c-3.739,-4.443 -7.872,-4.956 -11.11,-1.378c-1.753,1.937 -2.233,4.621 -2.233,12.486c0,11.74 1.179,13.796 7.911,13.796c3.519,0 5.289,-0.731 6.722,-2.778l0,0Zm-26.63,-57.143c2.359,-1.936 2.687,-2.876 1.636,-4.688c-1.466,-2.526 -13.718,-9.038 -17.123,-9.1c-3.397,-0.063 -3.014,9.543 0.531,13.316c3.456,3.679 10.767,3.909 14.956,0.472Zm56.555,-2.582c2.487,-2.752 4.521,-5.519 4.521,-6.148c0,-3.171 -1.826,-5.097 -4.821,-5.086c-4.032,0.015 -15.153,5.053 -17.55,7.95c-2.713,3.28 2.539,8.287 8.693,8.287c3.824,0 5.43,-0.877 9.157,-5.003Z" />
</g>

<g id="dots">
  <path d="M618.561,460.292c-3.44,-7.549 5.294,-13.056 10.894,-6.868c2.135,2.359 2.176,2.879 0.467,5.938c-2.703,4.838 -9.333,5.381 -11.361,0.93l0,0Zm47.112,0.597c-1.503,-1.66 -1.962,-3.467 -1.425,-5.606c1.575,-6.273 13.254,-5.335 13.254,1.064c0,6.42 -7.518,9.306 -11.829,4.542l0,0Zm-91.642,-9.496c-3.265,-2.287 -3.531,-5.174 -0.833,-9.026c3.647,-5.207 11.804,-2.376 11.804,4.097c0,6.025 -5.731,8.6 -10.971,4.929Zm137.5,0c-3.265,-2.287 -3.531,-5.174 -0.833,-9.026c3.647,-5.207 11.804,-2.376 11.804,4.097c0,6.025 -5.731,8.6 -10.971,4.929Zm-179.564,-21.269c-1.081,-1.08 -1.965,-3.049 -1.965,-4.375c0,-2.565 4.124,-7.41 6.307,-7.41c1.965,0 7.443,5.872 7.443,7.978c0,2.783 -3.56,5.772 -6.875,5.772c-1.62,0 -3.83,-0.884 -4.91,-1.965Zm221.182,-0.068c-2.623,-2.622 -1.973,-7.846 1.24,-9.966c5.543,-3.657 12.371,4.993 8.051,10.199c-1.994,2.403 -6.776,2.283 -9.291,-0.233Zm-256.897,-29.217c-3.008,-3.009 -3.125,-4.801 -0.554,-8.472c2.36,-3.37 6.923,-3.6 9.736,-0.492c2.88,3.183 2.58,7.214 -0.71,9.518c-3.671,2.571 -5.463,2.454 -8.472,-0.554l0,0Zm295.119,0.89c-6.68,-3.394 -4.945,-12.14 2.408,-12.14c6.257,0 8.435,8.465 3.087,11.997c-2.001,1.321 -3.119,1.35 -5.495,0.143Zm-324.528,-38.428c-5.15,-5.691 3.68,-14.522 9.372,-9.372c2.81,2.544 3.362,8.085 1.037,10.41c-2.324,2.324 -7.866,1.772 -10.409,-1.038Zm350.938,0.592c-3.265,-2.287 -3.531,-5.174 -0.833,-9.026c3.647,-5.207 11.804,-2.376 11.804,4.097c0,6.025 -5.731,8.6 -10.971,4.929l0,0Zm-437.5,-16.25c-5.177,-3.626 -2.383,-11.804 4.033,-11.804c3.638,0 6.001,2.792 6.001,7.093c0,3.205 -3.059,6.657 -5.898,6.657c-0.747,0 -2.609,-0.876 -4.136,-1.946Zm-195.71,-0.34c-2.42,-2.674 -2.713,-7.82 -0.569,-9.964c0.825,-0.825 2.963,-1.5 4.75,-1.5c4.348,0 6.25,2.155 6.25,7.081c0,6.217 -6.354,8.887 -10.431,4.383Zm675,0c-2.42,-2.674 -2.713,-7.82 -0.569,-9.964c0.825,-0.825 2.963,-1.5 4.75,-1.5c4.348,0 6.25,2.155 6.25,7.081c0,6.217 -6.354,8.887 -10.431,4.383l0,0Zm187.619,0.935c-2.546,-1.482 -2.994,-8.593 -0.688,-10.899c3.7,-3.7 11,0.092 11,5.715c0,2.559 -4.226,6.574 -6.84,6.497c-0.707,-0.021 -2.269,-0.612 -3.472,-1.313Zm-140.938,-1.149c-3.165,-3.166 -3.183,-6.494 -0.05,-9.33c5.076,-4.593 13.057,1.16 9.907,7.142c-2.794,5.306 -6.022,6.022 -9.857,2.188l0,0Zm237.5,0c-3.165,-3.166 -3.183,-6.494 -0.05,-9.33c5.076,-4.593 13.058,1.16 9.908,7.142c-2.794,5.306 -6.023,6.022 -9.857,2.188l-0.001,0Zm-144.181,0.214c-2.714,-2.999 -2.626,-6.823 0.217,-9.396c3.055,-2.765 5.926,-2.607 9.028,0.496c2.832,2.832 2.384,6.92 -1.054,9.623c-2.803,2.204 -5.78,1.941 -8.191,-0.723l0,0Zm97.406,-0.104c-5.434,-6.005 2.034,-14.907 7.987,-9.52c3.273,2.962 3.34,8.892 0.121,10.616c-3.527,1.887 -5.67,1.597 -8.108,-1.096l0,0Zm-1006.25,0c-4.793,-5.297 0.651,-13.859 7.269,-11.431c3.586,1.316 4.449,9.857 1.234,12.208c-3.103,2.269 -5.984,2.006 -8.503,-0.777Zm242.784,0.202c-4.265,-4.966 -3.741,-8.762 1.604,-11.623c6.265,-3.352 11.775,6.834 6.351,11.742c-2.943,2.664 -5.599,2.624 -7.955,-0.119l0,0Zm619.81,-0.098c-4.271,-4.72 -1.544,-11.464 4.635,-11.464c5.229,0 7.622,7.96 3.51,11.681c-2.971,2.689 -5.578,2.619 -8.145,-0.217Zm237.5,0c-4.271,-4.72 -1.544,-11.464 4.635,-11.464c5.229,0 7.622,7.96 3.51,11.681c-2.971,2.689 -5.578,2.619 -8.145,-0.217Zm-764.52,-0.45c-1.402,-1.505 -2.549,-3.348 -2.549,-4.097c0,-2.869 4.013,-6.917 6.857,-6.917c6.212,0 9.185,7.538 4.607,11.681c-3.101,2.807 -5.872,2.599 -8.915,-0.667Zm-288.799,0.236c-4.008,-4.009 -3.165,-8.288 2.188,-11.107c6.072,-3.198 11.321,4.348 7.296,10.491c-2.464,3.761 -6.102,3.998 -9.484,0.616l0,0Zm-93.75,0c-3.149,-3.15 -3.186,-6.492 -0.103,-9.282c3.243,-2.934 7.747,-2.055 9.987,1.95c1.651,2.951 1.62,3.633 -0.299,6.563c-2.558,3.903 -6.161,4.192 -9.585,0.769l0,0Zm242.779,0.554c-3.086,-2.162 -3.8,-8.181 -1.216,-10.248c3.528,-2.823 7.036,-2.958 9.623,-0.37c3.244,3.243 3.267,6.861 0.064,10.064c-3.008,3.008 -4.8,3.125 -8.471,0.554l0,0Zm950.54,-0.34c-2.484,-2.745 -2.658,-6.431 -0.445,-9.458c2.423,-3.313 8.464,-2.201 10.806,1.989c1.763,3.155 1.692,3.573 -1.116,6.562c-3.542,3.77 -6.4,4.051 -9.245,0.907l0,0Zm-998.307,-0.827c-2.502,-2.663 -2.72,-3.561 -1.51,-6.216c1.889,-4.147 7.085,-5.409 10.299,-2.501c3.073,2.782 3.145,7.062 0.163,9.761c-3.168,2.867 -5.537,2.591 -8.952,-1.044Zm-194.794,-43.53c-3.502,-3.729 -3.43,-6.002 0.301,-9.508c3.63,-3.41 7.218,-2.692 9.292,1.858c1.983,4.354 1.812,6.068 -0.847,8.474c-3.121,2.825 -5.531,2.597 -8.746,-0.824l0,0Zm1193.1,0.607c-2.484,-2.745 -2.658,-6.431 -0.445,-9.458c2.423,-3.313 8.464,-2.201 10.806,1.989c1.763,3.155 1.692,3.573 -1.116,6.562c-3.542,3.77 -6.4,4.051 -9.245,0.907l0,0Zm-1193.1,-44.357c-3.502,-3.729 -3.43,-6.002 0.301,-9.508c3.649,-3.427 7.816,-2.604 9.522,1.883c1.884,4.956 -1.381,10.518 -6.175,10.518c-0.511,0 -2.153,-1.302 -3.648,-2.893l0,0Zm1193.53,0.393c-1.375,-1.375 -2.5,-3.625 -2.5,-5c0,-2.891 4.169,-7.5 6.785,-7.5c1.992,0 6.965,5.765 6.965,8.075c0,1.88 -5.294,6.925 -7.268,6.925c-0.815,0 -2.607,-1.125 -3.982,-2.5Zm-1193.34,-44.245c-3.059,-2.631 -3.33,-3.426 -2.235,-6.541c0.759,-2.156 2.636,-4.033 4.793,-4.792c3.061,-1.076 3.881,-0.833 5.992,1.774c2.762,3.41 2.244,8.406 -1.14,10.991c-2.789,2.131 -3.407,2.011 -7.41,-1.432l0,0Zm1193.34,0.495c-3.119,-3.12 -3.214,-7.717 -0.214,-10.432c3.244,-2.935 5.888,-2.57 8.874,1.225c3.306,4.203 3.257,5.644 -0.303,8.989c-3.581,3.364 -5.169,3.406 -8.357,0.218Zm-94.181,-43.536c-4.056,-4.483 -1.142,-12.715 4.502,-12.715c1.997,0 7.179,5.576 7.179,7.726c0,1.784 -5.943,7.274 -7.874,7.274c-0.956,0 -2.669,-1.028 -3.807,-2.285l0,0Zm46.681,-0.214c-2.837,-2.838 -2.966,-3.612 -1.321,-7.937c1.564,-4.115 5.638,-5.299 9.508,-2.763c4.76,3.119 4.01,8.84 -1.542,11.762c-3.577,1.883 -3.722,1.86 -6.645,-1.062Zm-1145.84,-0.495c-3.059,-2.631 -3.33,-3.426 -2.235,-6.541c0.759,-2.156 2.636,-4.033 4.793,-4.792c3.061,-1.076 3.881,-0.833 5.992,1.774c1.586,1.958 2.09,4.439 1.592,6.687c-0.37,1.666 -1.291,3.204 -2.732,4.304c-2.789,2.131 -3.407,2.011 -7.41,-1.432l0,0Zm195.161,-0.074c-3.731,-3.73 -3.771,-4.452 -0.478,-8.638c3.033,-3.856 6.196,-4.206 9.091,-1.007c2.781,3.073 2.608,7.174 -0.432,10.214c-3.236,3.236 -4.462,3.151 -8.181,-0.569Zm761.031,1.793c-1.526,-0.614 -3.147,-2.6 -3.603,-4.414c-1.136,-4.528 4.12,-9.991 8.545,-8.881c5.982,1.502 6.715,10.24 1.111,13.239c-2.843,1.521 -2.422,1.517 -6.053,0.056Zm97.337,-0.93c-4.241,-3.615 -4.04,-9.731 0.387,-11.749c5.773,-2.63 11.967,4.468 8.47,9.705c-0.505,0.756 -2.132,2.014 -3.615,2.794c-2.172,1.143 -3.191,0.997 -5.242,-0.75l0,0Zm-192.643,-1.462c-1.954,-3.652 -1.562,-6.952 1.113,-9.373c3.115,-2.819 6.085,-2.164 9.214,2.032c2.379,3.189 2.401,3.533 0.416,6.562c-2.609,3.983 -8.788,4.431 -10.743,0.779Zm331.25,0c-1.954,-3.652 -1.562,-6.952 1.113,-9.373c3.115,-2.819 6.085,-2.164 9.214,2.032c2.379,3.189 2.401,3.533 0.416,6.562c-2.609,3.983 -8.788,4.431 -10.743,0.779l0,0Zm-950.579,0.453c-2.976,-2.976 -2.433,-7.671 1.16,-10.025c2.895,-1.897 3.356,-1.897 6.25,0c3.405,2.231 4.274,7.841 1.625,10.49c-2.103,2.103 -6.704,1.867 -9.035,-0.465Zm-195.465,0.465c-2.649,-2.649 -1.78,-8.259 1.625,-10.49c2.895,-1.897 3.356,-1.897 6.25,0c3.593,2.354 4.137,7.049 1.161,10.025c-2.331,2.332 -6.932,2.568 -9.036,0.465Zm46.671,-0.95c-4.418,-4.882 1.133,-13.099 6.801,-10.066c4.23,2.264 5.495,5.993 3.213,9.474c-2.424,3.7 -6.959,3.968 -10.014,0.592Zm194.894,-0.592c-2.281,-3.481 -1.016,-7.21 3.214,-9.474c5.668,-3.033 11.219,5.184 6.801,10.066c-3.055,3.376 -7.591,3.108 -10.015,-0.592Zm713.806,0.085c-4.12,-6.287 2.554,-13.096 8.816,-8.993c3.655,2.395 4.014,6.952 0.777,9.881c-3.247,2.939 -7.334,2.561 -9.593,-0.888Zm-862.5,0c-4.12,-6.287 2.554,-13.096 8.816,-8.993c3.655,2.395 4.014,6.952 0.777,9.881c-3.247,2.939 -7.334,2.561 -9.593,-0.888Zm675,0c-4.12,-6.287 2.554,-13.096 8.816,-8.993c3.655,2.395 4.014,6.952 0.777,9.881c-3.247,2.939 -7.334,2.561 -9.593,-0.888Zm-478.433,1.606c-4.616,-2.688 -1.516,-12.399 3.958,-12.399c5.571,0 8.702,9.905 3.937,12.456c-2.996,1.603 -5.072,1.588 -7.895,-0.056l0,-0.001Zm572.277,-0.614c-1.081,-1.08 -1.965,-3.049 -1.965,-4.375c0,-2.722 4.174,-7.41 6.597,-7.41c3.024,0 7.153,3.897 7.153,6.752c0,5.844 -7.69,9.129 -11.785,5.033l0,0Zm-526.374,-0.573c-2.618,-2.893 -1.558,-8.079 2.125,-10.39c3.015,-1.893 8.276,0.836 9.273,4.81c1.674,6.669 -6.702,10.769 -11.398,5.58Zm41.478,-15.998c-2.968,-3.281 -2.55,-7.341 0.995,-9.664c7.208,-4.723 14.743,4.141 8.4,9.881c-2.998,2.714 -6.822,2.625 -9.395,-0.217l0,0Zm350.71,0.34c-3.37,-2.36 -3.601,-6.923 -0.493,-9.736c2.674,-2.42 7.82,-2.713 9.964,-0.568c2.242,2.241 1.81,7.832 -0.786,10.181c-2.853,2.582 -5.129,2.614 -8.685,0.123l0,0Zm-322.064,-37.519c-2.284,-2.283 -2.486,-4.726 -0.671,-8.118c2.585,-4.83 12.456,-1.621 12.456,4.05c0,2.638 -4.049,6.033 -7.196,6.033c-1.444,0 -3.509,-0.884 -4.589,-1.965l0,0Zm293.035,-0.535c-3.753,-3.754 -3.104,-7.097 1.875,-9.666c5.693,-2.936 11.343,3.654 8.188,9.549c-1.793,3.35 -6.772,3.408 -10.063,0.117l0,0Zm-255.971,-28.196c-3.414,-2.391 -3.59,-6.933 -0.382,-9.836c3.308,-2.993 7.769,-2.033 10.062,2.167c1.838,3.368 1.773,3.635 -1.591,6.563c-4.134,3.597 -4.468,3.642 -8.089,1.106l0,0Zm222.616,0.647c-4.4,-1.708 -5.952,-5.79 -3.58,-9.41c2.275,-3.472 8.198,-4.164 10.623,-1.242c3.922,4.726 -1.436,12.83 -7.043,10.652Zm-182.076,-22.237c-4.807,-5.312 0.339,-12.864 7.031,-10.319c4.195,1.595 5.404,5.643 2.85,9.541c-2.395,3.655 -6.952,4.014 -9.881,0.778Zm137.5,0c-4.037,-4.461 -0.968,-11.464 5.024,-11.464c3.14,0 6.657,3.747 6.657,7.092c0,5.726 -7.81,8.649 -11.681,4.372l0,0Zm-91.275,-10.305c-1.812,-1.425 -3.294,-3.394 -3.294,-4.375c0,-2.615 4.609,-6.784 7.5,-6.784c2.637,0 7.5,4.089 7.5,6.306c0,1.606 -5.705,7.444 -7.274,7.444c-0.626,0 -2.621,-1.166 -4.432,-2.591l0,0Zm47.945,0.952c-3.506,-1.739 -4.839,-7.404 -2.426,-10.312c0.821,-0.99 3.043,-1.799 4.937,-1.799c4.308,0 6.551,2.594 6.028,6.97c-0.572,4.786 -4.494,7.147 -8.539,5.141l0,0Z" />
</g>
</svg>